<svg width="151" height="109" viewBox="0 0 151 109" fill="none" xmlns="http://www.w3.org/2000/svg">
<g clip-path="url(#clip0_439_1009)">
<path d="M5.51118 77.2387C5.19799 78.3791 4.75952 80.0997 4.19578 82.4008C4.06354 83.1963 3.93479 83.9881 3.80951 84.7763C3.52416 85.7758 2.99869 86.2753 2.23311 86.2753C1.75289 86.2753 1.37358 86.11 1.09519 85.7789C0.858553 85.4974 0.740234 85.1632 0.740234 84.7763C0.740234 83.6363 0.980347 82.2464 1.46058 80.6064C2.17743 78.1503 2.5637 76.7882 2.61938 76.5212C2.82122 75.437 3.02653 74.3533 3.23532 73.2696C3.54852 71.7774 3.88607 70.7851 4.24798 70.2924C4.61685 69.7929 5.07969 69.5429 5.63647 69.5429C6.26978 69.5429 6.7361 69.8667 7.03538 70.5144C7.31378 71.1265 7.61306 72.3791 7.93319 74.2722C8.23942 76.1095 8.69532 78.0868 9.30079 80.2051C10.0942 78.1152 10.8319 75.8208 11.514 73.3223L12.0986 70.8941C12.4745 69.8879 13.0556 69.3848 13.8421 69.3848C14.6007 69.3848 15.1644 69.969 15.5333 71.1374C15.6864 71.6085 15.85 72.4886 16.024 73.7763C16.4276 76.7743 16.9357 79.343 17.5482 81.4825C18.1676 83.6571 18.4773 84.8394 18.4773 85.0295C18.4773 85.4447 18.3137 85.7934 17.9866 86.0749C17.6804 86.328 17.3359 86.4546 16.9531 86.4546C16.1945 86.4546 15.6308 85.906 15.2619 84.8079L14.6772 82.2531C14.3432 80.9865 13.9813 79.1673 13.5915 76.7955C13.2783 77.7386 12.7598 79.22 12.036 81.2397L11.4096 83.1823C11.1521 83.9494 10.8841 84.579 10.6058 85.0718C10.2369 85.7262 9.72185 86.0537 9.0607 86.0537C8.40646 86.0537 7.90535 85.6632 7.55738 84.8817L6.97276 82.9184C6.42987 81.1167 5.94271 79.2236 5.51118 77.2387ZM33.214 86.2753C32.8938 86.2753 32.3858 85.9235 31.6898 85.2195C31.0495 85.5294 30.4858 85.7614 29.9986 85.9163C29.5114 86.078 29.0973 86.1591 28.7563 86.1591C27.0789 86.1591 25.8192 85.7051 24.9771 84.7975C24.1419 83.8895 23.7243 82.531 23.7243 80.7226C23.7243 79.0263 24.3437 77.5765 25.5826 76.373C26.8214 75.1627 28.3038 74.5574 30.0299 74.5574C30.6911 74.5574 31.4567 74.7474 32.3266 75.1276C33.3776 75.5847 33.903 76.1162 33.903 76.7216C33.903 76.9747 33.823 77.1968 33.6629 77.3864C33.5933 77.6684 33.5376 78.0237 33.4959 78.453C33.4611 78.875 33.4437 79.3714 33.4437 79.9411C33.4437 81.2856 33.5376 82.2531 33.7256 82.8445C33.7464 82.9076 33.9065 83.2737 34.2058 83.9422C34.4772 84.5475 34.6129 84.8925 34.6129 84.9768C34.6129 85.3497 34.4703 85.6596 34.1849 85.906C33.9065 86.1519 33.5829 86.2753 33.214 86.2753ZM30.625 79.0336C30.625 78.8083 30.6389 78.5512 30.6667 78.2629C30.7015 77.9674 30.7502 77.64 30.8129 77.281C30.6737 77.2107 30.5484 77.1612 30.437 77.1333C30.3326 77.0981 30.2422 77.0806 30.1656 77.0806C29.2191 77.0806 28.3908 77.4571 27.681 78.2102C26.971 78.9561 26.6161 79.8218 26.6161 80.8068C26.6161 81.75 26.7832 82.4608 27.1172 82.9395C27.4513 83.4111 27.9524 83.6467 28.6205 83.6467C29.052 83.6467 29.4592 83.5764 29.842 83.4354C30.2317 83.2877 30.5971 83.0733 30.9382 82.7914C30.7293 81.1167 30.625 79.8637 30.625 79.0336ZM50.0388 79.2867C49.7461 80.9406 49.5724 82.686 49.5167 84.5227C49.4472 86.796 49.0713 88.4463 48.3893 89.4737C47.4776 90.8461 45.8629 91.5325 43.5451 91.5325C40.8378 91.5325 39.4841 90.9907 39.4841 89.9065C39.4841 89.5196 39.6059 89.2066 39.8495 88.967C40.0931 88.7278 40.4132 88.6084 40.8099 88.6084C41.1231 88.6084 41.572 88.6679 42.1566 88.7877C42.7413 88.9075 43.2598 88.967 43.7122 88.967C44.7493 88.967 45.5146 88.6467 46.009 88.0067C46.482 87.3802 46.7604 86.3843 46.8442 85.0191C46.4891 85.3848 46.0892 85.6596 45.6437 85.8425C45.1983 86.0253 44.711 86.1168 44.182 86.1168C42.797 86.1168 41.6695 85.6632 40.7995 84.7552C39.9365 83.8404 39.505 82.672 39.505 81.2505C39.505 79.3362 40.0826 77.7877 41.238 76.6054C42.435 75.3807 44.0532 74.7686 46.0923 74.7686C46.7466 74.7686 47.3105 74.8497 47.7836 75.0114C48.257 75.1731 48.6397 75.4194 48.9319 75.7505C49.816 75.8559 50.2579 76.3838 50.2579 77.3337C50.2579 77.8053 50.1849 78.4566 50.0388 79.2867ZM45.988 77.1756C44.8117 77.1756 43.8966 77.5661 43.2424 78.3471C42.6578 79.0579 42.3655 79.9799 42.3655 81.1131C42.3655 81.9504 42.522 82.5806 42.8353 83.0026C43.1484 83.4251 43.6182 83.6363 44.2446 83.6363C44.8152 83.6363 45.3894 83.3017 45.9671 82.6333C46.5101 82 46.8197 81.3735 46.8963 80.7541C47.0286 80.0785 47.1818 79.0264 47.3555 77.5976C47.119 77.4571 46.886 77.3513 46.6562 77.281C46.4263 77.2107 46.2036 77.1756 45.988 77.1756ZM58.3758 72.8895C57.9304 72.8895 57.5442 72.7381 57.2168 72.4355C56.8899 72.1328 56.7264 71.7634 56.7264 71.327C56.7264 70.891 56.8899 70.5212 57.2168 70.2185C57.5442 69.9163 57.9304 69.765 58.3758 69.765C58.8213 69.765 59.2039 69.9163 59.5241 70.2185C59.8511 70.5212 60.015 70.891 60.015 71.327C60.015 71.7634 59.8511 72.1328 59.5241 72.4355C59.2039 72.7381 58.8213 72.8895 58.3758 72.8895ZM59.2631 80.6276C59.2631 81.0284 59.2738 81.6725 59.2943 82.5594C59.3224 83.4463 59.3362 84.0899 59.3362 84.4912C59.3362 84.8993 59.2003 85.2371 58.9291 85.5046C58.6578 85.765 58.313 85.8952 57.8957 85.8952C57.4779 85.8952 57.1335 85.765 56.8618 85.5046C56.5906 85.2371 56.4547 84.8993 56.4547 84.4912C56.4547 84.0899 56.4409 83.4463 56.4133 82.5594C56.3923 81.6725 56.3816 81.0284 56.3816 80.6276C56.3816 80.001 56.4164 79.2164 56.4863 78.2733C56.5558 77.3305 56.5906 76.5455 56.5906 75.9194C56.5906 75.5109 56.7264 75.1767 56.9977 74.9163C57.2694 74.6488 57.6137 74.5155 58.0311 74.5155C58.4489 74.5155 58.7932 74.6488 59.0649 74.9163C59.3362 75.1767 59.472 75.5109 59.472 75.9194C59.472 76.5455 59.4373 77.3305 59.3674 78.2733C59.2979 79.2164 59.2631 80.001 59.2631 80.6276ZM71.0665 86.2438C69.5351 86.2438 68.251 85.8037 67.214 84.9241C66.1214 83.9949 65.5748 82.7706 65.5748 81.2505C65.5748 79.8497 66.0657 78.4034 67.047 76.9117C68.1605 75.2086 69.455 74.3569 70.9307 74.3569C71.6545 74.3569 72.4999 74.5537 73.4674 74.9479C74.6437 75.4339 75.2317 75.9933 75.2317 76.6265C75.2317 76.9716 75.1132 77.2774 74.8767 77.5449C74.6264 77.8337 74.3026 77.9778 73.9061 77.9778C73.6068 77.9778 73.2447 77.8161 72.8202 77.4922C72.4028 77.1612 71.7725 76.9959 70.9307 76.9959C70.3948 76.9959 69.8135 77.5274 69.1873 78.5899C68.5886 79.6177 68.2893 80.5042 68.2893 81.2505C68.2893 81.9892 68.5539 82.5697 69.0826 82.9922C69.5837 83.3931 70.2451 83.594 71.0665 83.594C71.5324 83.594 72.1035 83.4143 72.7783 83.0553C73.4536 82.6968 73.8816 82.5171 74.0625 82.5171C74.4384 82.5171 74.7587 82.6544 75.0228 82.9287C75.2945 83.2035 75.4299 83.5165 75.4299 83.8683C75.4299 84.4173 74.8384 84.9664 73.6553 85.515C72.5975 86.001 71.7347 86.2438 71.0665 86.2438ZM102.171 72.0346C102.053 72.3228 101.913 72.6782 101.753 73.1007C101.635 73.5088 101.443 74.1141 101.179 74.9163C100.782 75.9509 100.152 77.4571 99.2893 79.4344C98.4055 81.4473 97.7721 82.9499 97.3895 83.9422C97.104 84.6813 96.8363 85.2722 96.5855 85.7159C96.2586 86.3001 95.761 86.5919 95.0929 86.5919C94.696 86.5919 94.3374 86.4829 94.0172 86.2645C93.6417 86.0114 93.4399 85.6772 93.4118 85.2619C93.0916 84.4525 92.8898 83.7908 92.8065 83.2774C92.5001 81.7712 92.0756 79.5083 91.5326 76.4892C91.0805 77.9039 90.5932 79.1741 90.0711 80.3001C89.2916 81.9892 88.7803 83.3161 88.5366 84.28C88.599 84.4349 88.6306 84.6002 88.6306 84.7763C88.6306 85.2128 88.4391 85.5682 88.0565 85.8425C87.7224 86.0749 87.3536 86.1906 86.9496 86.1906C86.4418 86.1906 86.0204 86.0605 85.6863 85.8001C85.3247 85.5119 85.1367 85.1177 85.1229 84.6178L84.799 83.3827C84.5697 82.2851 84.1937 80.6451 83.6717 78.4633C83.2124 76.7955 82.4432 74.4204 81.3644 71.3378C81.302 71.1617 81.2704 70.986 81.2704 70.8099C81.2704 70.3874 81.4307 70.0532 81.7505 69.8068C82.0361 69.5816 82.3804 69.469 82.7844 69.469C83.3131 69.469 83.7345 69.6942 84.0476 70.1446C84.2213 70.391 84.42 70.8378 84.6427 71.4855C85.3247 73.4701 86.0935 76.3626 86.9496 80.1632C87.5064 78.7908 88.0738 77.172 88.6516 75.3068C89.1175 73.7867 89.497 72.7066 89.7892 72.0661C90.4854 70.532 91.1954 69.765 91.9192 69.765C92.6012 69.765 93.0987 70.1415 93.4118 70.8941C93.5651 71.2531 93.7147 71.9044 93.8608 72.8471C93.9027 73.1358 93.9931 73.843 94.1321 74.969C94.2782 76.1797 94.7169 78.3823 95.4474 81.5775C96.1855 79.8321 97.177 77.3161 98.4229 74.0295C98.4995 73.8326 98.6804 73.1849 98.9659 72.0873C99.1677 71.2991 99.4216 70.6761 99.728 70.2185C100.062 69.7262 100.508 69.4798 101.064 69.4798C101.489 69.4798 101.84 69.6136 102.119 69.8807C102.397 70.1415 102.536 70.4793 102.536 70.8941C102.536 71.0423 102.414 71.422 102.171 72.0346ZM112.627 86.2014C111.34 86.2014 110.233 85.7546 109.307 84.8606C108.291 83.8823 107.759 82.577 107.71 80.9442C107.662 79.3889 108.082 78.0026 108.973 76.7851C110.031 75.3492 111.503 74.6312 113.389 74.6312C114.781 74.6312 115.888 75.1942 116.709 76.3203C117.447 77.3337 117.816 78.5899 117.816 80.0889C117.816 81.7221 117.384 83.1152 116.521 84.2696C115.554 85.5573 114.256 86.2014 112.627 86.2014ZM113.253 77.4184C112.398 77.4112 111.722 77.8053 111.229 78.6007C110.811 79.2691 110.602 80.0506 110.602 80.9442C110.602 81.7887 110.839 82.436 111.312 82.8864C111.688 83.2454 112.126 83.4251 112.627 83.4251C113.233 83.4251 113.758 83.2174 114.204 82.8022C114.712 82.3166 114.983 81.6586 115.018 80.828C115.108 78.562 114.52 77.4251 113.253 77.4184ZM128.157 86.2014C126.87 86.2014 125.763 85.7546 124.838 84.8606C123.821 83.8823 123.289 82.577 123.24 80.9442C123.191 79.3889 123.613 78.0026 124.504 76.7851C125.561 75.3492 127.033 74.6312 128.92 74.6312C130.312 74.6312 131.418 75.1942 132.239 76.3203C132.977 77.3337 133.346 78.5899 133.346 80.0889C133.346 81.7221 132.915 83.1152 132.051 84.2696C131.084 85.5573 129.786 86.2014 128.157 86.2014ZM128.784 77.4184C127.928 77.4112 127.253 77.8053 126.758 78.6007C126.341 79.2691 126.132 80.0506 126.132 80.9442C126.132 81.7887 126.369 82.436 126.842 82.8864C127.218 83.2454 127.656 83.4251 128.157 83.4251C128.763 83.4251 129.288 83.2174 129.734 82.8022C130.242 82.3166 130.513 81.6586 130.548 80.828C130.638 78.562 130.051 77.4251 128.784 77.4184ZM147.028 74.969C147.119 72.5692 147.227 70.9122 147.352 69.9969C147.47 69.1664 147.922 68.7515 148.709 68.7515C149.12 68.7515 149.45 68.8853 149.701 69.1524C149.951 69.4199 150.076 69.7474 150.076 70.1343C150.076 71.1549 149.997 72.6751 149.836 74.6947C149.683 76.7144 149.607 78.2345 149.607 79.2552C149.607 81.7464 149.687 83.4143 149.847 84.2588C149.868 84.3714 149.878 84.4736 149.878 84.5651C149.878 84.952 149.739 85.2722 149.46 85.5258C149.182 85.7722 148.859 85.8952 148.49 85.8952C147.975 85.8952 147.592 85.6632 147.342 85.1984C146.868 85.4871 146.378 85.7015 145.869 85.8425C145.361 85.9902 144.836 86.0641 144.293 86.0641C142.734 86.0641 141.44 85.5609 140.409 84.5547C139.359 83.5269 138.833 82.218 138.833 80.6276C138.833 78.7345 139.362 77.2071 140.42 76.046C141.478 74.8776 142.859 74.2934 144.564 74.2934C145.086 74.2934 145.553 74.3497 145.963 74.4623C146.374 74.5749 146.729 74.7438 147.028 74.969ZM146.82 78.2944C146.59 77.8512 146.29 77.5202 145.922 77.3022C145.553 77.0842 145.114 76.9747 144.606 76.9747C143.576 76.9747 142.804 77.2774 142.289 77.8828C141.774 78.4809 141.516 79.3817 141.516 80.5852C141.516 81.3455 141.794 81.9964 142.351 82.5382C142.908 83.0801 143.555 83.3512 144.293 83.3512C144.829 83.3512 145.236 83.2877 145.514 83.1611C145.702 83.0765 146.023 82.8513 146.475 82.4855C146.593 82.3869 146.708 82.2779 146.82 82.1581C146.805 81.8203 146.805 80.5325 146.82 78.2944Z" fill="#32620E"/>
<path d="M26.6858 99.3067C26.3465 99.3067 26.0958 99.1256 25.9337 98.7635C25.8583 98.5923 25.7829 98.4892 25.7075 98.4549C25.6509 98.4284 25.502 98.4148 25.2608 98.4148C24.7857 98.4148 24.2372 98.7882 23.6152 99.5355C22.7444 100.58 22.3089 101.558 22.3089 102.469C22.3089 102.885 22.4465 103.241 22.7217 103.538C22.997 103.836 23.3268 103.984 23.7113 103.984C24.0846 103.984 24.4634 103.885 24.848 103.687C24.9837 103.614 25.2702 103.428 25.7075 103.127C26.0015 102.928 26.2239 102.829 26.3748 102.829C26.601 102.829 26.7932 102.913 26.9516 103.081C27.0986 103.237 27.1721 103.416 27.1721 103.618C27.1721 103.843 27.0741 104.04 26.8781 104.207C25.8413 105.092 24.7857 105.534 23.7113 105.534C22.8631 105.534 22.1468 105.221 21.5625 104.596C21.0046 103.994 20.7256 103.285 20.7256 102.469C20.7256 101.192 21.2779 99.8881 22.3824 98.5576C23.3211 97.4293 24.2806 96.8654 25.2608 96.8654C25.4266 96.8654 25.5755 96.8708 25.7075 96.8825C25.8432 96.8938 25.9619 96.9109 26.0637 96.9339C26.2296 96.7699 26.4294 96.688 26.6631 96.688C27.0477 96.688 27.2852 96.9109 27.3757 97.3568C27.4397 97.6771 27.4718 98.0509 27.4718 98.4779C27.4718 98.6684 27.4172 98.8418 27.3078 98.9981C27.1646 99.204 26.9572 99.3067 26.6858 99.3067ZM36.1715 101.274C36.1375 101.857 35.8755 102.149 35.3854 102.149C34.9104 102.149 34.6729 101.901 34.6729 101.406L34.6446 100.828C33.7964 100.965 33.1895 101.406 32.8238 102.149L32.8294 105.025C32.8294 105.242 32.7559 105.421 32.6089 105.562C32.4618 105.707 32.2753 105.78 32.0491 105.78C31.8153 105.78 31.6344 105.703 31.5062 105.551C31.3856 105.414 31.3253 105.239 31.3253 105.025V101.279C31.3253 101.161 31.329 100.986 31.3366 100.753C31.3441 100.517 31.3479 100.34 31.3479 100.222C31.3479 100.008 31.4101 99.8309 31.5345 99.69C31.6627 99.5449 31.8436 99.4729 32.0773 99.4729C32.4958 99.4729 32.7446 99.69 32.8238 100.125C33.4911 99.6215 34.2318 99.3697 35.0461 99.3697C35.8001 99.3697 36.1771 99.8769 36.1771 100.891C36.1771 101.085 36.1752 101.213 36.1715 101.274ZM43.0898 105.66C42.1888 105.66 41.4518 105.443 40.8787 105.008C40.2454 104.527 39.9287 103.851 39.9287 102.978C39.9287 102.014 40.1795 101.197 40.6808 100.53C41.2388 99.7909 41.9909 99.4211 42.9371 99.4211C43.5931 99.4211 44.1378 99.5278 44.5714 99.7413C45.1408 100.024 45.4254 100.462 45.4254 101.057C45.4254 101.476 45.1934 101.847 44.7297 102.172C44.5186 102.32 44.0945 102.537 43.4574 102.823L41.5517 103.676C41.7326 103.874 41.9513 104.022 42.2076 104.122C42.464 104.221 42.758 104.27 43.0898 104.27C43.595 104.27 44.0228 104.165 44.3734 103.956C44.6863 103.769 44.9373 103.676 45.1257 103.676C45.5176 103.676 45.7136 103.868 45.7136 104.253C45.7136 104.688 45.3987 105.042 44.7693 105.317C44.2415 105.545 43.6817 105.66 43.0898 105.66ZM42.9371 100.805C42.5865 100.805 42.2868 100.923 42.038 101.16C41.7892 101.396 41.5894 101.751 41.4386 102.223C41.8646 102.036 42.2887 101.852 42.7109 101.669C43.2199 101.436 43.6251 101.22 43.9267 101.022C43.6742 100.877 43.3443 100.805 42.9371 100.805ZM54.8431 105.774C54.6699 105.774 54.3946 105.584 54.0173 105.202C53.6708 105.37 53.3652 105.496 53.1015 105.58C52.8374 105.667 52.6133 105.711 52.4285 105.711C51.5198 105.711 50.8374 105.465 50.3813 104.974C49.9292 104.482 49.7029 103.746 49.7029 102.766C49.7029 101.847 50.0383 101.062 50.7096 100.411C51.3804 99.7548 52.1835 99.4269 53.1184 99.4269C53.4766 99.4269 53.8912 99.5301 54.3625 99.7359C54.9318 99.9836 55.2164 100.271 55.2164 100.599C55.2164 100.736 55.1727 100.857 55.0863 100.959C55.0485 101.112 55.0182 101.304 54.9959 101.537C54.9767 101.765 54.9674 102.034 54.9674 102.343C54.9674 103.071 55.0182 103.595 55.1202 103.916C55.1313 103.95 55.2182 104.148 55.3803 104.51C55.5273 104.838 55.6008 105.025 55.6008 105.071C55.6008 105.273 55.5237 105.44 55.3692 105.574C55.2182 105.707 55.0427 105.774 54.8431 105.774ZM53.4405 101.851C53.4405 101.729 53.448 101.59 53.4632 101.434C53.4823 101.274 53.5086 101.097 53.5425 100.902C53.4672 100.864 53.399 100.838 53.3389 100.822C53.2823 100.803 53.2333 100.793 53.1919 100.793C52.6792 100.793 52.2307 100.998 51.8458 101.406C51.4614 101.81 51.269 102.278 51.269 102.812C51.269 103.323 51.3599 103.708 51.5407 103.967C51.7216 104.222 51.9928 104.35 52.355 104.35C52.5888 104.35 52.8093 104.312 53.0164 104.236C53.2276 104.156 53.4258 104.04 53.6102 103.887C53.497 102.98 53.4405 102.301 53.4405 101.851ZM63.6332 100.793C63.5539 100.793 63.4599 100.792 63.3503 100.788C63.2448 100.78 63.1526 100.776 63.0733 100.776C62.9187 100.776 62.7397 100.792 62.5361 100.822C62.6038 102.362 62.6381 103.368 62.6381 103.841C62.6381 103.891 62.6399 103.984 62.6435 104.122C62.6475 104.255 62.6492 104.363 62.6492 104.448C62.6492 105.324 62.3757 105.762 61.8292 105.762C61.6221 105.762 61.443 105.698 61.292 105.568C61.1263 105.431 61.0435 105.259 61.0435 105.053C61.0435 104.917 61.0488 104.711 61.0604 104.436C61.0715 104.162 61.0773 103.956 61.0773 103.818C61.0773 103.357 61.0435 102.37 60.9753 100.857C60.7415 100.845 60.3874 100.815 59.9121 100.765C59.4408 100.711 59.2056 100.464 59.2056 100.021C59.2056 99.808 59.2769 99.6269 59.4203 99.4783C59.5638 99.3296 59.7482 99.2553 59.9745 99.2553C60.1139 99.2553 60.4346 99.2783 60.9357 99.3242C60.9321 99.2022 60.9228 98.9999 60.9076 98.718C60.8925 98.4738 60.8849 98.2851 60.8849 98.1518C60.8849 97.9383 60.9624 97.7613 61.117 97.6199C61.2715 97.4789 61.4577 97.4086 61.6764 97.4086C62.2346 97.4086 62.5134 97.8829 62.5134 98.8324L62.5023 99.3013C62.7361 99.267 62.9263 99.2499 63.0733 99.2499C63.5067 99.2499 63.8029 99.2783 63.961 99.3355C64.2626 99.4422 64.4136 99.6746 64.4136 100.033C64.4136 100.25 64.3401 100.431 64.1931 100.576C64.0461 100.721 63.8595 100.793 63.6332 100.793ZM69.6353 98.5234C69.3944 98.5234 69.185 98.4414 69.0077 98.2775C68.8304 98.1135 68.7418 97.9135 68.7418 97.6771C68.7418 97.441 68.8304 97.2406 69.0077 97.0767C69.185 96.9127 69.3944 96.8307 69.6353 96.8307C69.8768 96.8307 70.0839 96.9127 70.2576 97.0767C70.4349 97.2406 70.5231 97.441 70.5231 97.6771C70.5231 97.9135 70.4349 98.1135 70.2576 98.2775C70.0839 98.4414 69.8768 98.5234 69.6353 98.5234ZM70.1159 102.715C70.1159 102.932 70.1217 103.281 70.1329 103.761C70.148 104.242 70.1556 104.59 70.1556 104.808C70.1556 105.029 70.0821 105.212 69.9351 105.357C69.7881 105.498 69.6015 105.568 69.3752 105.568C69.1489 105.568 68.9627 105.498 68.8153 105.357C68.6683 105.212 68.5948 105.029 68.5948 104.808C68.5948 104.59 68.5872 104.242 68.5725 103.761C68.561 103.281 68.5552 102.932 68.5552 102.715C68.5552 102.376 68.5743 101.951 68.6117 101.44C68.6496 100.929 68.6683 100.504 68.6683 100.165C68.6683 99.9435 68.7418 99.7625 68.8888 99.6215C69.0362 99.4765 69.2229 99.404 69.4487 99.404C69.675 99.404 69.8616 99.4765 70.0086 99.6215C70.1556 99.7625 70.2291 99.9435 70.2291 100.165C70.2291 100.504 70.2104 100.929 70.1725 101.44C70.1351 101.951 70.1159 102.376 70.1159 102.715ZM77.8713 104.974C77.8526 105.164 77.7751 105.321 77.6397 105.443C77.5038 105.564 77.3359 105.626 77.1363 105.626C76.7555 105.626 76.486 105.427 76.3274 105.031C75.9203 104.001 75.2967 102.465 74.4557 100.422C74.4068 100.307 74.3823 100.199 74.3823 100.096C74.3823 99.8899 74.4633 99.7165 74.6255 99.5756C74.7916 99.431 74.98 99.3585 75.1912 99.3585C75.5154 99.3585 75.747 99.5089 75.8865 99.8102C76.1016 100.271 76.5199 101.35 77.1421 103.046C77.3417 102.616 77.617 101.96 77.9675 101.079C78.0731 100.786 78.237 100.376 78.4597 99.8503C78.6143 99.5449 78.8477 99.3927 79.1608 99.3927C79.3719 99.3927 79.5586 99.463 79.7207 99.6044C79.8864 99.7454 79.9693 99.9206 79.9693 100.13C79.9693 100.267 79.6641 101.022 79.0535 102.395C78.5555 103.515 78.1617 104.375 77.8713 104.974ZM86.5598 105.66C85.6587 105.66 84.9215 105.443 84.3487 105.008C83.7153 104.527 83.3986 103.851 83.3986 102.978C83.3986 102.014 83.6494 101.197 84.1509 100.53C84.7086 99.7909 85.4609 99.4211 86.407 99.4211C87.0631 99.4211 87.6079 99.5278 88.0413 99.7413C88.6105 100.024 88.8952 100.462 88.8952 101.057C88.8952 101.476 88.6631 101.847 88.1994 102.172C87.9887 102.32 87.5642 102.537 86.9273 102.823L85.0217 103.676C85.2026 103.874 85.4213 104.022 85.6774 104.122C85.934 104.221 86.228 104.27 86.5598 104.27C87.0649 104.27 87.493 104.165 87.8435 103.956C88.1562 103.769 88.407 103.676 88.5954 103.676C88.9874 103.676 89.1834 103.868 89.1834 104.253C89.1834 104.688 88.8689 105.042 88.2391 105.317C87.7112 105.545 87.1518 105.66 86.5598 105.66ZM86.407 100.805C86.0565 100.805 85.7567 100.923 85.5077 101.16C85.2592 101.396 85.0592 101.751 84.9086 102.223C85.3344 102.036 85.7585 101.852 86.1807 101.669C86.6899 101.436 87.0952 101.22 87.3968 101.022C87.1442 100.877 86.8141 100.805 86.407 100.805ZM102.427 98.5405C102.133 98.5405 101.675 98.5198 101.053 98.4779C100.453 98.436 99.9952 98.4166 99.6785 98.4207C99.6937 98.8553 99.7445 99.6292 99.8313 100.742C99.9102 101.726 99.9498 102.503 99.9498 103.075C99.9498 103.205 99.9632 103.397 99.9894 103.653C100.016 103.908 100.029 104.1 100.029 104.23C100.029 104.516 99.969 104.773 99.8483 105.002C99.6937 105.296 99.4732 105.443 99.1863 105.443C98.9792 105.443 98.7962 105.376 98.638 105.242C98.4607 105.094 98.3721 104.907 98.3721 104.682C98.3721 104.629 98.3815 104.549 98.4006 104.442C98.4193 104.331 98.4287 104.247 98.4287 104.19C98.4287 104.015 98.4158 103.75 98.389 103.396C98.3668 103.041 98.3552 102.774 98.3552 102.595C98.3552 102.084 98.3155 101.392 98.2367 100.519C98.1458 99.5166 98.0933 98.8247 98.0781 98.4432H97.7841C96.9436 98.4432 96.2764 98.3824 95.7824 98.2604C95.3637 98.1577 95.1548 97.9077 95.1548 97.5113C95.1548 97.3172 95.2225 97.1415 95.3583 96.9852C95.5165 96.7983 95.724 96.7145 95.9802 96.7339C96.112 96.7416 96.4118 96.7735 96.8795 96.8307C97.2527 96.8731 97.5543 96.8938 97.7841 96.8938C98.014 96.8938 98.357 96.8902 98.8135 96.8825C99.2732 96.8749 99.6184 96.8708 99.8483 96.8708C100.135 96.8708 100.564 96.892 101.137 96.9339C101.711 96.9722 102.14 96.9911 102.427 96.9911C102.653 96.9911 102.842 97.0654 102.992 97.214C103.147 97.3627 103.224 97.5455 103.224 97.7631C103.224 97.9802 103.147 98.1653 102.992 98.3176C102.842 98.4662 102.653 98.5405 102.427 98.5405ZM109.311 105.734C108.614 105.734 108.014 105.492 107.513 105.008C106.963 104.478 106.674 103.771 106.648 102.887C106.621 102.044 106.849 101.293 107.332 100.634C107.905 99.8557 108.702 99.467 109.724 99.467C110.478 99.467 111.077 99.7719 111.522 100.382C111.922 100.931 112.122 101.611 112.122 102.423C112.122 103.308 111.888 104.063 111.42 104.688C110.897 105.385 110.193 105.734 109.311 105.734ZM109.65 100.977C109.187 100.973 108.821 101.186 108.553 101.617C108.327 101.979 108.214 102.402 108.214 102.887C108.214 103.344 108.342 103.695 108.599 103.939C108.802 104.133 109.04 104.23 109.311 104.23C109.639 104.23 109.924 104.118 110.165 103.893C110.44 103.63 110.588 103.273 110.606 102.823C110.655 101.596 110.337 100.98 109.65 100.977ZM121.941 100.565C121.53 101.43 120.88 102.789 119.99 104.642C119.508 105.637 119.14 106.462 118.887 107.118C118.808 107.354 118.684 107.705 118.514 108.17C118.378 108.528 118.137 108.708 117.79 108.708C117.575 108.708 117.387 108.637 117.225 108.496C117.063 108.355 116.982 108.178 116.982 107.964C116.982 107.61 117.381 106.559 118.18 104.813C117.766 103.986 117.108 102.768 116.207 101.16C116.117 101.015 116.024 100.868 115.93 100.719C115.828 100.544 115.777 100.384 115.777 100.239C115.777 100.033 115.858 99.8521 116.02 99.6958C116.183 99.5395 116.369 99.4612 116.58 99.4612C116.829 99.4612 117.023 99.5548 117.162 99.7413C117.698 100.462 118.322 101.547 119.034 102.995C119.438 102.092 119.683 101.547 119.77 101.36C120.037 100.792 120.299 100.292 120.555 99.8616C120.717 99.5873 120.94 99.4499 121.223 99.4499C121.434 99.4499 121.623 99.5224 121.788 99.667C121.954 99.812 122.037 99.989 122.037 100.199C122.037 100.309 122.005 100.431 121.941 100.565ZM129.945 101.211C129.572 101.211 129.348 101.053 129.272 100.736C129.121 100.71 128.967 100.696 128.809 100.696C127.9 100.696 127.446 100.822 127.446 101.074C127.446 101.222 127.719 101.423 128.266 101.674C129.012 102.021 129.517 102.292 129.781 102.486C130.328 102.887 130.601 103.338 130.601 103.841C130.601 104.497 130.299 104.994 129.696 105.334C129.21 105.604 128.612 105.74 127.904 105.74C127.402 105.74 126.944 105.662 126.529 105.505C125.964 105.292 125.681 104.977 125.681 104.562C125.681 104.181 125.906 103.99 126.354 103.99C126.528 103.99 126.778 104.045 127.106 104.156C127.434 104.267 127.687 104.322 127.864 104.322C128.63 104.322 129.014 104.165 129.018 103.853C129.018 103.659 128.752 103.443 128.22 103.207C127.444 102.86 126.946 102.61 126.728 102.458C126.196 102.08 125.93 101.621 125.93 101.079C125.93 100.313 126.332 99.7967 127.135 99.5301C127.606 99.3738 128.322 99.2954 129.283 99.2954C129.66 99.2954 129.94 99.3449 130.12 99.444C130.369 99.5774 130.494 99.8233 130.494 100.182C130.494 100.868 130.311 101.211 129.945 101.211Z" fill="#6B3E0A"/>
<path fill-rule="evenodd" clip-rule="evenodd" d="M65.7738 17.6383C65.7738 17.7492 66.7724 19.346 67.9925 21.1858C71.1951 26.0147 72.3768 29.9551 72.3768 35.801C72.3768 39.877 71.3274 46.688 70.0387 50.9755C69.7951 51.7871 68.8446 51.8804 60.2794 51.9349C48.9575 52.0074 45.4229 52.5173 52.5192 53.0542C62.6215 53.8176 102.891 53.2699 101.328 52.3893C101.189 52.311 96.3889 52.1051 90.6621 51.9317L80.2497 51.6173L79.8885 46.7385C79.5019 41.5133 78.7945 36.6099 77.8841 32.8534C77.4266 30.9628 77.4765 29.9813 78.15 27.6382C78.6065 26.0506 78.9754 24.2094 78.97 23.5468C78.962 22.5581 78.6832 22.7887 77.415 24.8314L75.869 27.3213L74.4623 25.0881C72.8659 22.5545 69.6303 19.4528 67.3279 18.2489C66.4731 17.8021 65.7738 17.5273 65.7738 17.6383ZM89.2224 27.8134C87.7329 28.3922 85.1045 29.8483 83.3815 31.0496L80.2497 33.2329L80.3669 35.9525C80.4827 38.6345 80.9419 39.88 81.3695 38.6721C81.9588 37.008 86.0318 32.5986 88.875 30.5468C94.2838 26.6444 94.3907 25.8062 89.2224 27.8134ZM55.8692 56.4521C52.7602 57.1615 59.1173 57.5241 74.6623 57.5241C90.189 57.5241 96.245 57.1831 93.7097 56.4516C92.0959 55.9863 57.9102 55.9868 55.8692 56.4521ZM63.9961 60.0351C57.8492 60.7508 62.8651 61.3584 75.0013 61.3674C86.0309 61.3755 88.3463 61.1742 87.467 60.2855C87.0095 59.8225 67.5991 59.6153 63.9961 60.0351Z" fill="#6B3E0A"/>
<path fill-rule="evenodd" clip-rule="evenodd" d="M73.7313 2.86542C68.9256 7.68666 67.6356 12.1319 69.8 16.4211C71.302 19.3979 71.6481 19.2757 71.6538 15.7641C71.6574 13.7359 71.9705 12.0251 72.5184 11.0426L73.3772 9.50174L73.0765 11.8181C72.7888 14.0369 73.8489 20.192 74.8217 21.95C75.1723 22.5839 75.3981 22.4524 76.015 21.2526C76.4333 20.4395 77.493 18.4216 78.3709 16.7683C80.1651 13.3872 80.2845 11.9696 79.1767 7.19049C77.8591 1.50384 77.4012 0 76.9874 0C76.7678 0 75.3023 1.28967 73.7313 2.86542ZM52.8229 9.88693C54.1512 14.2305 55.9405 15.9455 59.9026 16.6697C61.0201 16.8741 62.2629 17.3091 62.6642 17.6368C63.2606 18.1242 63.3306 18.061 63.0451 17.2921C62.8531 16.7749 62.6963 16.1088 62.6963 15.8119C62.6963 15.5156 61.8803 14.4945 60.8825 13.5428C59.8411 12.55 59.3792 11.813 59.797 11.813C60.1983 11.813 61.1288 12.4221 61.8651 13.1668C63.172 14.4888 63.2041 14.4945 63.2041 13.3985C63.2041 11.6455 62.5622 9.85328 60.5578 9.06056C59.797 8.75959 57.8367 8.74212 55.9325 8.73851C52.5739 8.73135 52.48 8.76626 52.8229 9.88693ZM85.5637 14.5269C84.1851 15.2321 82.0194 18.6974 82.0056 20.2187C81.9989 21.0025 82.3686 20.8381 84.0305 19.3198C86.6621 16.9157 87.8028 16.8997 85.4287 19.2998C83.716 21.0322 82.1085 23.9095 82.5851 24.3912C83.1241 24.9362 88.7935 23.1088 89.952 22.0168C90.6616 21.3481 91.9235 19.4401 92.7578 17.7765C93.9626 15.3723 94.1341 14.663 93.5952 14.3178C92.5613 13.6543 86.9846 13.7996 85.5637 14.5269ZM53.0457 20.5469C51.5094 21.1247 48.9384 21.8889 47.3322 22.2454L44.4116 22.893L49.3638 28.1128C52.2982 31.2058 55.0906 33.6438 56.2042 34.1287C59.9729 35.7701 69.8071 35.289 69.8071 34.3706C69.8071 33.1811 63.8437 27.8632 60.9186 26.4441C58.9498 25.4893 58.185 24.8971 58.7574 24.7723C60.1663 24.4647 64.8205 26.0286 66.723 27.4498C67.6811 28.1647 68.5697 28.6434 68.6984 28.5135C69.1733 28.0332 65.4339 22.4349 63.7782 21.1468C61.4353 19.3234 56.9632 19.0733 53.0457 20.5469ZM98.5047 19.8848C96.3635 20.6829 94.6954 22.5648 94.6954 23.4349C94.6954 23.9285 95.0214 23.9064 96.0922 23.3419C98.265 22.1956 98.6241 22.4672 96.768 23.8524C95.8432 24.5422 94.7649 25.571 94.372 26.1385C93.7043 27.102 93.7729 27.1924 95.4067 27.5021C98.0802 28.0096 99.8227 27.3979 102.844 24.8915C104.365 23.6306 105.991 22.6901 105.991 22.6901C105.991 22.6901 106.378 22.3558 106.378 22.0589C106.378 20.9295 100.646 19.0868 98.5047 19.8848ZM91.3939 30.6958C89.9476 31.5175 89.928 31.5704 91.013 31.7384C92.4469 31.9602 92.5221 32.8709 91.1066 32.8709C89.8678 32.8709 88.0924 33.7517 88.0924 34.3665C88.0924 35.0717 92.9693 36.9797 94.7724 36.9797C97.0633 36.9797 101.314 35.3016 100.869 34.626C100.646 34.1756 99.9033 32.8801 98.8187 31.7831C97.1938 30.1406 96.5007 29.7929 94.8825 29.8098C93.8014 29.8211 92.2322 30.2197 91.3939 30.6958Z" fill="#32620E"/>
</g>
<defs>
<clipPath id="clip0_439_1009">
<rect width="151" height="109" fill="white"/>
</clipPath>
</defs>
</svg>