<svg width="90" height="90" viewBox="0 0 90 90" fill="none" xmlns="http://www.w3.org/2000/svg">
<path fill-rule="evenodd" clip-rule="evenodd" d="M59.126 0.0974523C56.4654 0.529233 53.1812 1.92005 51.1182 3.48865C47.9378 5.90677 45.3365 9.89673 44.5633 13.5421L44.4463 14.0942L42.1588 14.0998C38.6108 14.1084 35.7631 14.7614 32.4936 16.3163C27.4109 18.7332 23.2369 23.1321 21.1397 28.2814C20.0205 31.0297 19.6019 33.0122 19.4954 36.0709C19.299 41.708 20.4665 45.538 24.0126 50.8896C26.515 54.6659 27.545 56.5865 28.8683 59.9433C30.1886 63.2925 31.1478 67.376 31.5951 71.5508C31.7117 72.64 31.7085 72.6507 31.1821 72.8688C30.4352 73.1786 29.236 74.3801 28.7782 75.2777C28.2443 76.3243 28.1291 78.1469 28.5219 79.3311C28.8826 80.4177 30.0186 81.7689 30.9878 82.2637C31.3725 82.4602 32.1387 82.7238 32.6903 82.8491C33.6748 83.0729 33.6987 83.0936 33.996 83.9726C35.4748 88.3456 40.1169 90.8755 44.5438 89.7212C46.9816 89.0857 49.2013 87.241 50.3067 84.9322C50.654 84.2064 50.9383 83.4778 50.9383 83.313C50.9383 83.0947 51.1634 82.9794 51.7646 82.8889C53.0065 82.7027 54.0696 82.1794 54.9042 81.3439C56.2002 80.0466 56.7103 78.3789 56.3472 76.6278C56.0084 74.9937 55.0931 73.8176 53.3555 72.7833C53.0556 72.6047 53.0491 72.4642 53.26 70.7117C54.1164 63.5959 56.4354 57.3389 60.5027 51.1704C63.9459 45.9484 65.0972 42.6189 65.2644 37.4006L65.3423 34.9712L66.8362 34.5052C68.5659 33.9653 71.1289 32.6478 72.4828 31.6023C73.6116 30.7308 75.5149 28.7393 76.2729 27.6367C77.1762 26.3222 78.2403 24.0616 78.7623 22.3479C79.2098 20.8786 79.2539 20.4729 79.2615 17.7637C79.2685 15.2249 79.2102 14.5681 78.8609 13.2604C78.3434 11.3225 76.966 8.47169 75.8149 6.95569C73.4198 3.80154 69.6573 1.31245 65.874 0.379182C64.5383 0.0497168 60.4671 -0.120149 59.126 0.0974523ZM58.7499 3.78929C52.3727 5.24334 47.6992 10.9783 47.6992 17.3498C47.6992 25.3954 53.8294 31.634 61.7352 31.634C70.6635 31.634 77.2917 23.4961 75.487 14.7503C74.4288 9.62149 70.8575 5.69187 65.784 4.07337C64.1742 3.5598 60.421 3.40831 58.7499 3.78929ZM67.9342 11.2258C67.7311 11.2636 65.6691 13.1937 63.3517 15.5151L59.1386 19.7355L57.4918 18.1191C56.0523 16.706 55.7663 16.5028 55.2157 16.5028C54.0005 16.5028 53.0955 17.6565 53.4552 18.7472C53.7021 19.4962 58.0472 23.8139 58.7254 23.9843C59.0005 24.0533 59.4484 24.0158 59.7273 23.9002C60.4162 23.6145 69.762 14.2016 70.0094 13.5443C70.5041 12.2298 69.3666 10.959 67.9342 11.2258ZM40.025 17.7648C38.1477 17.9676 36.1771 18.5799 33.9303 19.6584C31.7371 20.7109 30.5561 21.5325 28.8187 23.214C26.4246 25.5311 24.6694 28.4889 23.6621 31.9042C23.2838 33.1866 23.1647 34.0402 23.0924 35.9889C22.9846 38.8954 23.2192 40.8111 23.9538 43.0226C24.6667 45.1686 25.2973 46.363 27.292 49.346C29.715 52.9694 31.5593 56.6588 32.8907 60.5455C34.0071 63.805 34.6002 66.6261 35.2104 71.5787L35.3049 72.3443H37.903H40.5013V63.4377V54.5312L39.4284 54.0493C38.0916 53.4488 36.5381 51.8676 35.8611 50.4186C35.4318 49.4995 35.3756 49.1655 35.3821 47.5759C35.3884 46.0328 35.4554 45.6324 35.8489 44.7838C37.9628 40.2253 43.8059 39.1366 47.3132 42.6474C51.0634 46.4016 49.5156 52.6747 44.4152 54.3936C44.121 54.4928 44.1003 55.0851 44.1003 63.4221V72.3443H46.7995C49.0364 72.3443 49.4987 72.2996 49.4987 72.0833C49.4987 71.9397 49.6236 70.869 49.7762 69.7037C50.7614 62.1806 53.2726 55.5691 57.6034 49.0969C60.4898 44.7834 61.4764 41.9669 61.6855 37.4433L61.7876 35.2367L60.8166 35.2344C58.4085 35.2284 54.8311 34.1002 52.3788 32.5732C50.7632 31.5674 48.4926 29.4411 47.4039 27.9146C45.6852 25.5048 44.4553 22.1413 44.1418 18.9933L44.0103 17.6736L42.6607 17.6497C41.9184 17.6365 40.7323 17.6882 40.025 17.7648ZM3.93379 26.9322C3.45476 27.3603 3.35003 27.587 3.35003 28.1944C3.35003 28.8987 3.4544 29.0401 5.50546 31.1136C7.95293 33.5879 8.51149 33.9338 9.43661 33.5469C10.5294 33.0899 10.9003 32.1371 10.3774 31.1296C10.2386 30.8621 9.15229 29.6909 7.96319 28.5267C6.02029 26.6245 5.73651 26.4101 5.15941 26.4101C4.70522 26.4101 4.34641 26.5629 3.93379 26.9322ZM82.0368 28.5267C79.8139 30.7031 79.3702 31.2912 79.3702 32.0617C79.3702 32.6559 80.145 33.5496 80.7628 33.6677C81.5985 33.8277 82.2535 33.3795 84.4945 31.1136C86.5456 29.0401 86.65 28.8987 86.65 28.1944C86.65 27.2274 85.8211 26.4101 84.8406 26.4101C84.2635 26.4101 83.9797 26.6245 82.0368 28.5267ZM0.538878 37.5646C-0.179296 38.2835 -0.179656 39.1584 0.537978 39.9623L1.06307 40.5506H4.42163H7.78018L8.30527 39.9623C9.02291 39.1584 9.02255 38.2835 8.30437 37.5646L7.77838 37.038H4.42163H1.06487L0.538878 37.5646ZM81.6956 37.5646C80.9775 38.2835 80.9771 39.1584 81.6947 39.9623L82.2198 40.5506H85.5784H88.9369L89.462 39.9623C90.1797 39.1584 90.1793 38.2835 89.4611 37.5646L88.9351 37.038H85.5784H82.2216L81.6956 37.5646ZM5.86067 46.0595C4.64116 47.2565 3.546 48.4708 3.42723 48.7579C2.95847 49.8908 3.80422 51.0885 5.07286 51.0885C5.80201 51.0885 5.917 51.0026 8.14764 48.7932C9.42203 47.5308 10.5107 46.3149 10.5669 46.0912C10.8461 44.9773 9.98185 43.8831 8.82227 43.8831C8.11345 43.8831 7.97291 43.9863 5.86067 46.0595ZM79.9991 44.318C79.5031 44.8144 79.2847 45.4989 79.4331 46.0912C79.4893 46.3149 80.578 47.5308 81.8524 48.7932C84.083 51.0026 84.198 51.0885 84.9271 51.0885C86.1958 51.0885 87.0415 49.8908 86.5728 48.7579C86.454 48.4708 85.3588 47.2565 84.1393 46.0595C82.0271 43.9863 81.8866 43.8831 81.1777 43.8831C80.6309 43.8831 80.3183 43.9984 79.9991 44.318ZM41.159 44.3163C38.7869 45.1959 38.1128 48.2278 39.8794 50.0727C41.365 51.6242 43.9837 51.3462 45.2645 49.5011C45.7122 48.8563 45.8038 48.547 45.8038 47.6807C45.8038 45.2046 43.4201 43.4782 41.159 44.3163ZM32.3473 76.4522C31.7117 77.1164 31.6914 78.068 32.298 78.774L32.7322 79.2794L42.0562 79.3293C48.8556 79.3655 51.5177 79.3221 51.8877 79.1688C52.9874 78.7127 53.2015 77.0587 52.257 76.315C51.7997 75.9549 51.584 75.9469 42.3101 75.9469H32.8308L32.3473 76.4522ZM37.5644 83.2874C37.7106 83.703 38.5084 84.7809 38.9672 85.1829C39.9397 86.035 40.7295 86.3003 42.3008 86.3025C43.5748 86.3043 43.9756 86.2304 44.6995 85.8602C45.6255 85.3867 46.5976 84.426 47.0638 83.5234L47.3485 82.9722H42.401C37.7668 82.9722 37.4605 82.9922 37.5644 83.2874Z" fill="#112907"/>
</svg>
