<svg width="90" height="88" viewBox="0 0 90 88" fill="none" xmlns="http://www.w3.org/2000/svg">
<path fill-rule="evenodd" clip-rule="evenodd" d="M44.2214 0.023868C42.2254 0.340759 39.8685 1.45618 37.7539 3.08463C33.2938 6.5194 29.616 10.9128 26.5292 16.4937C23.8348 21.365 22.2445 26.0829 21.99 29.9604C21.9601 30.4147 21.9213 30.8104 21.9037 30.8398C21.8734 30.8903 21.2821 31.0069 20.9993 31.0182C20.3401 31.0443 16.603 31.9895 15.9208 32.3026C15.8253 32.3464 15.5139 32.4661 15.2286 32.5684C13.8822 33.0517 9.92164 34.9285 8.53248 35.7416C3.32995 38.7869 0.69531 42.4049 0.0823342 47.3459C-0.0425875 48.3524 -0.0229682 50.0118 0.124959 50.9561C0.192324 51.3864 0.270541 51.8931 0.298755 52.0821C0.369593 52.5566 0.846189 54.0241 0.950276 54.0886C0.997154 54.1176 1.01417 54.1759 0.988126 54.2182C0.925882 54.3189 1.59798 55.7474 2.07119 56.5201C3.02281 58.0739 4.42942 59.5463 5.8941 60.5218C6.81083 61.1323 8.25564 61.8669 8.53986 61.8669C8.64125 61.8669 8.76296 61.9057 8.81045 61.9533C8.9951 62.1382 10.5094 62.5788 11.6671 62.7844C14.2901 63.2503 16.9299 63.2624 20.2614 62.8239C22.3168 62.5533 24.8619 61.7537 25.4468 61.1946C25.9838 60.6815 26.0643 59.8936 25.6456 59.2505C25.191 58.5524 24.4787 58.4829 23.1122 59.0032C21.0416 59.7917 19.3027 60.0441 15.9162 60.0473C13.5941 60.0496 12.6592 59.9486 11.0267 59.519C8.44428 58.8394 6.30837 57.3827 4.98536 55.3988L4.51632 54.6954L5.15907 54.0339C5.84089 53.3323 5.98092 53.0869 5.98092 52.5936C5.98092 51.3857 4.48446 50.6796 3.52545 51.4351L3.30434 51.6092L3.20625 51.1522C2.94451 49.9334 2.94373 47.957 3.20451 46.7676C4.07592 42.7931 6.60014 40.0299 11.685 37.4839C13.3353 36.6575 15.8845 35.5155 16.9192 35.1388C18.0643 34.722 18.0646 34.7219 18.2213 34.6982C18.293 34.6873 18.7422 34.5777 19.2197 34.4544C20.1545 34.2132 21.6436 33.9958 22.9845 33.905C23.8667 33.8452 24.2797 33.7018 24.6179 33.3377C24.9428 32.9879 24.9925 32.6985 24.9944 31.1502C24.9962 29.5702 25.0576 28.949 25.3439 27.6131C26.1866 23.6813 28.2697 19.0631 31.2262 14.5723C33.4416 11.2073 35.9867 8.39327 39.0561 5.91509C41.6255 3.84073 44.1227 2.78582 45.8501 3.04525C46.7365 3.17835 47.4905 4.01887 47.7933 5.21123C47.9104 5.67183 47.9521 6.1646 47.953 7.09554C47.9545 8.58628 47.893 9.61528 47.8024 9.61615C47.7665 9.6165 47.7373 9.69666 47.7373 9.79429C47.7373 10.3098 47.1865 12.4493 46.6706 13.9381C46.3961 14.7301 46.3892 14.7401 46.0018 14.8861C44.1178 15.5966 41.3098 17.0843 38.3418 18.9444C35.1686 20.9331 31.2546 24.3235 29.2889 26.7863C29.0984 27.0248 28.8705 27.2987 28.7824 27.3948C28.4186 27.7917 27.1451 29.8033 26.7454 30.6124C26.1714 31.7741 25.7434 33.1173 25.8188 33.5198C25.9439 34.1879 26.4017 34.6746 27.011 34.7878C27.8736 34.9481 28.5299 34.4796 28.8261 33.4923C29.1689 32.35 29.8921 30.9552 30.7327 29.8157C30.9209 29.5606 31.0612 29.3518 31.0444 29.3518C31.0059 29.3518 31.5587 28.7228 32.6825 27.4879C33.6451 26.4301 35.3421 24.8963 36.8858 23.6889C37.7454 23.0165 40.5658 21.0661 41.0931 20.7792C41.1903 20.7264 41.6214 20.4777 42.0511 20.2267C45.7971 18.038 49.9253 16.4153 53.597 15.688C55.3102 15.3487 57.6465 15.2547 58.7737 15.4799C61.6942 16.0631 62.2748 17.8612 60.6 21.1361C58.5596 25.1261 52.9534 30.1013 46.8257 33.3602C43.2026 35.2871 39.2019 36.7789 36.4715 37.2212C34.8231 37.4881 34.3956 37.5269 33.0753 37.529C31.8374 37.5309 31.6899 37.5479 31.3755 37.7245C30.8616 38.0132 30.6354 38.4032 30.6354 39.0004C30.6354 39.2722 30.6626 39.5219 30.6958 39.5551C30.729 39.5884 30.7656 39.6799 30.7771 39.7584C30.7886 39.8369 30.8775 40.1977 30.9746 40.56C31.5186 42.5894 31.6338 45.257 31.2865 47.7828C31.2442 48.0901 31.0056 49.1599 30.8989 49.521C30.6584 50.3341 30.9475 51.1015 31.6165 51.4259C32.5173 51.8626 33.5038 51.4329 33.7563 50.494C34.1745 48.9383 36.6833 46.6278 40.0978 44.6535C40.4559 44.4464 40.9247 44.1695 41.1396 44.0382C41.6758 43.7103 44.4228 42.3785 45.2197 42.0601C47.7072 41.0659 50.7304 40.116 52.172 39.8755C52.4305 39.8324 53.189 39.6947 53.8575 39.5696C55.26 39.3073 57.8756 39.0826 59.4784 39.087C64.9913 39.1019 69.1563 40.3976 72.9873 43.2891C74.0173 44.0666 75.6715 45.6543 76.5331 46.6924C76.8919 47.1248 77.2523 47.5588 77.3339 47.6568C77.6861 48.0798 78.8474 49.9087 79.3736 50.8691C81.3499 54.4759 82.5681 59.0848 82.5536 62.9C82.5311 68.8221 78.9378 74.2682 73.0862 77.2492C70.1092 78.7657 67.4481 79.4444 63.5739 79.675C62.5964 79.7333 62.4003 79.7701 62.1613 79.9406C61.3504 80.5189 61.3538 81.8175 62.1677 82.3988L62.4518 82.6017L67.0631 82.6256C71.6078 82.6492 71.6767 82.6522 71.8377 82.8304C72.063 83.0797 72.0618 83.7768 71.8357 84.0271L71.6703 84.2101H60.7889C48.5825 84.2101 49.6615 84.2773 50.1836 83.5493C50.3683 83.2918 50.6197 83.0855 50.9432 82.9265L51.4267 82.6887L54.5241 82.6452C57.4952 82.6035 57.6315 82.5943 57.8663 82.4199C58.3111 82.0896 58.5019 81.7135 58.5019 81.1672C58.5019 80.7961 58.4527 80.599 58.3066 80.3839C57.9294 79.829 57.7621 79.7642 56.385 79.6395C53.0044 79.3335 50.4654 78.1399 48.2829 75.8309C45.5273 72.9156 44.4176 68.6363 45.4008 64.7171C46.6755 59.6367 51.0305 56.0183 56.314 55.6499C57.5323 55.5649 57.6296 55.5442 57.9474 55.3014C58.3923 54.9615 58.5265 54.6333 58.4853 53.9853C58.4533 53.482 58.4205 53.4032 58.1093 53.0842C57.6599 52.6232 57.2923 52.5306 56.2014 52.6037C53.163 52.8072 50.1848 53.9291 47.8513 55.7493C44.949 58.0131 43.0523 61.1011 42.3119 64.768C41.1525 70.5097 43.5511 76.4944 48.3883 79.9286L49.0828 80.4217L48.3872 81.1205C47.5933 81.918 47.1469 82.6329 46.8619 83.5631L46.6637 84.2101H40.082C35.0409 84.2101 33.5002 84.1858 33.5002 84.1064C33.5002 83.8811 34.4329 83.1006 34.9408 82.9009C35.4284 82.7091 35.5908 82.6969 38.2748 82.6505C40.311 82.6153 41.1496 82.5711 41.2879 82.4919C41.6788 82.2681 41.9524 81.789 41.9874 81.2674C42.0159 80.8432 41.9869 80.7248 41.7753 80.4014C41.6113 80.1507 41.3971 79.9655 41.1279 79.8414C40.7257 79.6561 40.7254 79.6556 40.6264 79.0554C40.4598 78.0447 40.0786 77.1973 39.4249 76.3846C38.4417 75.1621 37.1702 74.3234 35.6639 73.9037C33.8001 73.3844 33.1964 73.1122 31.9376 72.224C31.2283 71.7234 29.2934 69.7973 28.52 68.822C27.5257 67.5678 26.1512 65.4707 25.557 64.3011C25.3285 63.8513 24.9478 63.4059 24.6728 63.2668C24.3911 63.1244 23.629 63.1508 23.2835 63.3149C22.6029 63.6384 22.2879 64.6306 22.6532 65.3009C22.7573 65.4922 22.9174 65.7961 23.0088 65.9761C23.991 67.9112 26.0766 70.7672 27.8083 72.5488C30.0053 74.8092 32.0796 76.1158 34.369 76.6817C35.4533 76.9498 36.205 77.3712 36.8999 78.1009C37.262 78.4811 37.4273 78.7382 37.5277 79.077C37.6028 79.3299 37.643 79.5711 37.6171 79.613C37.5912 79.655 37.0317 79.6893 36.3737 79.6893C35.0208 79.6893 34.2182 79.8471 33.3573 80.2823C31.3287 81.3078 29.9491 83.5237 30.0419 85.6079C30.0665 86.1632 30.1078 86.315 30.305 86.5737C30.8001 87.2238 28.7776 87.17 51.7886 87.145L72.4351 87.1225L73.0048 86.8522C74.5029 86.1413 75.2806 84.5872 75.01 82.8448C74.883 82.0262 74.6269 81.4475 74.1115 80.8138L73.7188 80.331L74.5204 79.9215C75.5497 79.3959 76.6579 78.6992 77.6461 77.9567L78.4297 77.3678L78.9048 77.5839C79.1662 77.7027 79.4471 77.8333 79.529 77.8741C79.9851 78.1012 81.039 78.3164 81.9079 78.36C84.2596 78.478 86.3135 77.6318 87.9454 75.8727C90.3764 73.2521 90.6853 69.2492 88.6841 66.3007C87.9942 65.2842 86.9485 64.3251 86.0483 63.8829L85.5871 63.6563V62.8177C85.5871 58.7046 84.474 54.0632 82.5806 50.2814C81.8088 48.7397 80.3871 46.4646 79.7154 45.6963C79.6527 45.6246 79.3118 45.2129 78.9578 44.7814C78.2486 43.917 76.4959 42.188 75.5557 41.4253C74.644 40.6857 73.3219 39.7797 72.3049 39.1976C71.3029 38.6241 69.5427 37.7849 69.3419 37.7849C69.2718 37.7849 69.1773 37.7512 69.132 37.7102C69.0108 37.6005 67.8845 37.2206 66.7924 36.9211C64.2775 36.2314 60.09 35.8842 57.1563 36.1223C52.2118 36.5236 47.6667 37.6741 43.1362 39.6714C40.3782 40.8873 37.3701 42.6309 35.3435 44.1885C34.9489 44.4917 34.6123 44.74 34.5957 44.74C34.5791 44.74 34.5386 44.2802 34.5056 43.7184C34.4727 43.1566 34.3667 42.2141 34.2702 41.6241C34.1736 41.034 34.1073 40.5396 34.1229 40.5254C34.1385 40.5113 34.6005 40.4557 35.1496 40.4019C35.6987 40.3482 36.519 40.2251 36.9726 40.1284C37.4262 40.0316 38.0058 39.9162 38.2606 39.8718C39.4863 39.6583 42.2711 38.7998 44.0912 38.0742C48.6425 36.2597 54.6005 32.4035 58.3229 28.8628C59.7892 27.468 61.8096 25.1215 62.2691 24.2794C62.3253 24.1764 62.5157 23.87 62.6923 23.5986C63.8385 21.8362 64.5297 19.7595 64.5247 18.0933C64.5149 14.8739 62.1874 12.732 58.3283 12.3911C55.9143 12.1779 53.8106 12.4077 50.6561 13.2291C50.3755 13.3022 50.1287 13.3447 50.1076 13.3236C50.0864 13.3024 50.1108 13.1346 50.1616 12.9506C50.3719 12.19 50.6936 10.7351 50.8317 9.92105C51.0451 8.66157 51.0477 5.91657 50.8363 4.93486C50.3112 2.4964 49.0167 0.887603 47.0674 0.250865C46.5436 0.0797696 46.1769 0.0248244 45.4368 0.00630646C44.9115 -0.00673433 44.3646 0.00109011 44.2214 0.023868ZM53.8174 17.9284C50.4578 18.6791 47.7129 19.6663 44.6554 21.2235C41.658 22.7501 39.2743 24.3668 36.7758 26.5673C34.3716 28.685 31.1655 32.3566 30.9132 33.2815C30.7377 33.9242 31.0976 34.7008 31.7078 34.9967C32.1291 35.2009 32.3902 35.22 32.8144 35.0777C33.2128 34.9441 33.4039 34.7587 34.1908 33.7422C36.7863 30.389 39.9003 27.5717 43.4835 25.3346C46.9732 23.1558 51.1423 21.5167 55.1422 20.7506C56.1754 20.5528 56.4366 20.4456 56.7794 20.0789C57.3014 19.5204 57.2842 18.6764 56.7387 18.0817C56.2338 17.5311 55.7167 17.504 53.8174 17.9284ZM13.885 41.5378C12.6684 41.7119 11.4884 42.5667 10.8766 43.7172C10.5793 44.2761 10.5406 44.4186 10.5396 44.9573C10.5383 45.723 10.7314 46.0941 11.2751 46.3701C12.2286 46.854 13.1278 46.4407 13.4888 45.3524C13.6603 44.8353 13.9925 44.5615 14.5207 44.5019C14.94 44.4545 15.3067 44.5956 15.8642 45.0187C16.1893 45.2652 16.311 45.3051 16.7388 45.3051C17.6108 45.3051 18.2213 44.6943 18.2213 43.822C18.2213 43.2336 18.004 42.8591 17.403 42.4125C16.7186 41.9039 16.2641 41.7053 15.4533 41.5604C14.7089 41.4274 14.6615 41.4268 13.885 41.5378ZM85.0662 67.0451C85.0662 67.1198 84.8908 67.7183 84.6765 68.375C84.0005 70.4466 82.6718 72.8635 81.339 74.4462C81.0494 74.7901 80.8124 75.0901 80.8124 75.1128C80.8124 75.2032 81.725 75.3424 82.3177 75.3424C83.5725 75.3424 84.6663 74.8781 85.5894 73.9537C87.4062 72.1341 87.448 69.3187 85.6862 67.4126C85.2067 66.8937 85.0662 66.8105 85.0662 67.0451Z" fill="#112907"/>
</svg>