<svg width="90" height="68" viewBox="0 0 90 68" fill="none" xmlns="http://www.w3.org/2000/svg">
<path fill-rule="evenodd" clip-rule="evenodd" d="M75.6742 0.165764C74.7426 0.409427 73.9267 0.882479 73.1941 1.60384C72.6608 2.12891 72.4882 2.37618 72.1057 3.16271L71.6511 4.09747L71.0726 3.5503C70.0503 2.58347 68.8546 2.10999 67.4351 2.10999C66.1663 2.10999 65.0717 2.49019 64.0761 3.27663C63.2479 3.93084 62.8093 4.56914 62.1978 6.00954C61.9871 6.50606 61.2129 8.3245 60.4773 10.0505C58.7388 14.1298 57.938 16.0125 57.5228 16.9968L57.1859 17.7956L57.0803 16.7818C56.8079 14.1663 56.1514 12.3958 55.0845 11.3996C53.869 10.2647 52.2422 10.1147 50.5418 10.9806C49.2663 11.6302 48.6295 13.5478 48.0096 18.6054C47.5308 22.5112 46.8959 26.3939 46.2802 29.1807C45.7694 31.4919 45.0269 34.2104 44.9064 34.2104C44.8709 34.2104 44.8146 34.0459 44.7815 33.845C44.7483 33.6441 44.5508 32.8412 44.3426 32.061C43.3646 28.3955 42.5422 23.7792 41.8078 17.8316C41.2122 13.0072 40.5802 11.4317 38.9834 10.791C36.7833 9.90839 34.9777 10.5767 33.9384 12.6582C33.7219 13.0918 33.4477 13.7896 33.3289 14.2089C33.1107 14.9795 32.856 16.6351 32.8536 17.2986C32.8518 17.7602 32.729 17.9841 32.6367 17.6937C32.6011 17.5818 32.2834 16.8125 31.9307 15.9843C30.9057 13.5773 29.4663 10.1983 28.3593 7.60013C27.7952 6.27607 27.2097 4.98536 27.0583 4.73181C26.6613 4.06737 25.6675 3.17251 24.9144 2.80143C23.9525 2.32743 23.3461 2.20233 22.2246 2.24635C20.8736 2.2994 19.7795 2.71614 18.8767 3.5215C18.6021 3.76645 18.3635 3.95251 18.3464 3.93497C18.3293 3.91743 18.2182 3.68348 18.0996 3.41514C17.0252 0.984793 14.4421 -0.348816 11.8998 0.214342C10.8569 0.445366 10.0784 0.871216 9.33755 1.61579C7.66779 3.29391 7.2431 5.62986 8.21763 7.77553C8.42287 8.22735 8.44957 8.34832 8.35216 8.38563C8.28533 8.41125 8.19162 8.40807 8.14399 8.37867C8.09628 8.34926 7.71869 8.36723 7.30476 8.41856C4.64859 8.74803 2.62063 11.0455 2.60073 13.7476C2.59402 14.6478 2.71106 15.1569 3.18382 16.2839C3.34247 16.6622 3.74158 17.6102 4.07076 18.3904C4.39985 19.1707 4.86434 20.2733 5.10283 20.8408C5.3414 21.4082 6.55098 24.2843 7.79087 27.232C9.03068 30.1797 10.0323 32.6035 10.0166 32.6182C10.0008 32.633 9.55881 32.4385 9.03421 32.1861C7.65203 31.5212 6.34582 31.1933 4.85909 31.1378C3.86896 31.1008 3.58621 31.121 2.99322 31.2706C1.60277 31.6217 0.718588 32.2278 0.25281 33.149C0.0339598 33.5817 -0.00109419 33.7471 2.54692e-05 34.3394C0.00123126 34.9331 0.0392997 35.1077 0.278562 35.6159C0.629532 36.3612 0.863885 36.6579 2.20334 38.0517C3.49465 39.3955 4.45213 40.5946 5.66782 42.3908C7.34275 44.8656 9.22911 48.1623 10.5066 50.8472C12.0544 54.1005 12.458 54.8451 13.5832 56.5218C17.0541 61.6938 21.8146 65.4789 26.9125 67.1198C28.9358 67.771 28.7873 67.7586 34.1468 67.7253L38.9269 67.6955L39.6704 67.4133C41.2034 66.8314 42.9694 65.644 44.1376 64.4095C44.4929 64.034 44.8428 63.6392 44.9151 63.5323C45.0463 63.3383 45.0491 63.34 45.7333 64.0447C47.4561 65.8187 49.6135 67.047 51.8577 67.5313C52.8137 67.7376 52.914 67.7419 56.7978 67.7419C61.2255 67.7419 61.3475 67.7296 63.2579 67.0855C66.8154 65.8862 69.8155 63.9537 72.7382 60.9788C75.3038 58.3674 77.3282 55.3597 78.8051 51.9649C79.5612 50.227 81.2188 47.1078 82.6202 44.7857C84.6478 41.4261 85.9378 39.7111 88.3892 37.1163C89.4385 36.0057 89.8091 35.3904 89.9658 34.4996C90.1274 33.5805 89.7022 32.4407 88.9877 31.8778C88.5686 31.5477 87.8773 31.2171 87.2647 31.0539C86.6073 30.8788 84.5921 30.8605 83.7563 31.022C82.8748 31.1922 81.6277 31.6181 80.8064 32.0293C80.392 32.2368 80.0528 32.3743 80.0528 32.3349C80.0528 32.2954 80.1845 31.9565 80.3454 31.5817C80.5064 31.2069 81.0544 29.8943 81.5632 28.6648C82.7641 25.763 84.3824 21.8636 84.7032 21.0987C85.8555 18.3521 86.9459 15.6976 87.0611 15.3585C87.3261 14.5781 87.4079 13.8 87.3029 13.059C87.0375 11.1849 85.8742 9.56998 84.2275 8.78896C83.5746 8.47935 82.6478 8.24884 82.046 8.24643C81.7218 8.24514 81.6796 8.22451 81.7354 8.09451C81.7709 8.01171 81.9373 7.55715 82.1049 7.08427C82.3805 6.30737 82.4098 6.13747 82.409 5.32171C82.408 4.30622 82.2055 3.57635 81.6738 2.67057C81.2741 1.98996 80.292 1.02684 79.6134 0.650079C78.4665 0.0134102 76.9636 -0.171357 75.6742 0.165764ZM12.3626 3.00915C11.6825 3.21645 10.8848 4.00762 10.6467 4.71118C10.3941 5.45756 10.4768 5.75874 11.7833 8.84682C13.1893 12.17 15.2727 17.0997 15.5533 17.7671C15.7373 18.2044 16.0383 18.9203 16.2222 19.3577C16.4062 19.795 16.9918 21.1783 17.5235 22.4314C18.0552 23.6845 18.579 24.9226 18.6873 25.1827C19.1033 26.1811 19.5941 27.3435 20.1941 28.7508C20.5368 29.5547 20.963 30.5606 21.1412 30.9862C21.3194 31.4118 21.6889 32.2823 21.9624 32.9207C22.6989 34.6396 22.6875 35.2767 21.9104 35.8387C21.6221 36.0471 21.4584 36.1019 21.1243 36.1019C20.3222 36.1019 19.9345 35.7408 19.4165 34.5113C19.2172 34.0385 18.9477 33.4001 18.8176 33.0927C18.6875 32.7853 18.4355 32.1856 18.2574 31.76C18.0795 31.3344 17.8266 30.7347 17.6955 30.4274C17.5643 30.12 17.2541 29.3849 17.006 28.7938C16.758 28.2027 16.2759 27.0613 15.9349 26.2574C15.5939 25.4535 14.1551 22.0349 12.7375 18.6606C9.87955 11.8574 9.93433 11.9611 8.9579 11.5C7.2009 10.6702 5.31789 12.0045 5.49161 13.9563C5.52399 14.3197 5.68152 14.8183 6.00975 15.5961C6.85432 17.5976 7.88432 20.0447 8.32589 21.0987C8.56361 21.6662 8.86583 22.382 8.99752 22.6893C9.23359 23.2404 9.92649 24.8876 10.8059 26.9882C11.0534 27.5793 11.3635 28.3145 11.4952 28.6218C11.7313 29.1729 12.4242 30.8201 13.3036 32.9207C13.5511 33.5118 13.8608 34.247 13.992 34.5543C14.1231 34.8617 14.3679 35.4421 14.536 35.844C15.3785 37.8587 15.575 38.3234 15.727 38.6598C16.0099 39.2863 16.0169 39.4948 15.7715 39.9915C15.3687 40.8062 14.6119 41.1063 13.8673 40.7465C13.5482 40.5922 13.3523 40.3875 12.8578 39.6912C11.5489 37.8483 9.9339 36.2369 8.43967 35.2827C7.67029 34.7914 6.39112 34.3206 5.51107 34.2047C4.21235 34.0339 2.88246 34.2348 2.88246 34.6019C2.88246 34.6729 3.29509 35.1652 3.79937 35.6959C7.58089 39.6752 10.0959 43.5898 13.8928 51.4061C14.8091 53.2924 15.5508 54.5776 16.4142 55.7751C18.4209 58.5582 20.5564 60.6431 23.1037 62.3061C25.4486 63.8371 27.9624 64.8092 30.7447 65.2613C31.649 65.4082 34.6639 65.4081 35.5679 65.2612C38.3747 64.8051 39.7093 64.2512 41.4359 62.826C42.4144 62.0183 43.5534 60.5867 43.4064 60.3492C43.2611 60.1145 40.2576 58.0863 38.7546 57.2079C34.6517 54.8101 32.9516 53.5773 31.0892 51.6497C28.8541 49.3361 27.6372 47.0465 27.1608 44.2588C26.9059 42.7665 26.962 40.6909 27.2931 39.3691C27.6845 37.8066 28.77 35.8742 29.8115 34.8856C31.129 33.6351 32.9325 32.7597 34.996 32.3692C35.9345 32.1916 37.6989 32.1916 38.6375 32.3692C39.4618 32.5252 40.8376 32.9478 41.3252 33.1948C41.5075 33.2871 41.6707 33.3485 41.688 33.3313C41.7052 33.314 41.6236 32.9534 41.5064 32.53C40.6604 29.4725 39.8447 24.986 39.1855 19.7661C38.6584 15.5915 38.3383 13.969 37.969 13.6004C37.8203 13.4519 37.6739 13.4037 37.372 13.4037C37.0372 13.4037 36.932 13.4464 36.7267 13.6657C36.1945 14.2345 35.8247 15.7511 35.699 17.8812C35.5264 20.8047 35.9272 24.8838 36.5722 26.7674C36.7822 27.3803 36.8278 27.637 36.7986 28.0401C36.7655 28.497 36.7277 28.5793 36.4006 28.9058C36.041 29.2647 36.0356 29.2667 35.4007 29.2667C34.3753 29.2667 34.3007 29.1734 33.1652 26.4724C32.5731 25.0639 30.9692 21.2887 29.841 18.6483C29.5682 18.01 29.025 16.7332 28.6339 15.8111C28.2428 14.8889 27.469 13.0705 26.9145 11.7701C26.3598 10.4697 25.6201 8.73307 25.2707 7.91112C24.7897 6.77956 24.5463 6.31768 24.269 6.00971C23.0709 4.67954 20.9735 4.99611 20.1578 6.63021C19.8544 7.23791 19.87 7.6555 20.2268 8.47728C20.3869 8.84605 20.6558 9.47661 20.8244 9.87856C20.9929 10.2805 22.0068 12.6986 23.0774 15.2522C24.148 17.8058 25.1154 20.1078 25.2271 20.3679C25.3389 20.628 25.6244 21.3051 25.8614 21.8725C28.0011 26.994 28.8355 28.9779 28.9833 29.2961C29.2658 29.9038 29.29 30.3507 29.0656 30.8135C28.7105 31.5458 27.925 31.8681 27.2365 31.5641C26.4635 31.2228 26.7705 31.8789 21.7777 19.895C21.3245 18.8074 20.8622 17.7047 20.7502 17.4446C20.6383 17.1846 20.233 16.2173 19.8496 15.2952C19.4662 14.3731 19.0611 13.4058 18.9495 13.1457C18.376 11.8099 17.2658 9.11413 17.2658 9.05772C17.2658 9.02222 16.9571 8.25409 16.5798 7.35088C15.0376 3.65829 15.0582 3.69448 14.2536 3.2664C13.6826 2.96255 12.8758 2.85284 12.3626 3.00915ZM76.2589 3.03142C75.1817 3.32143 74.8453 3.74882 73.9011 6.02716C73.4838 7.03414 73.0125 8.16759 72.854 8.5459C72.4096 9.60558 69.7352 16.0255 69.4154 16.7998C69.2593 17.1781 68.841 18.1841 68.4861 19.0352C68.1311 19.8864 67.4144 21.6081 66.8934 22.8613C66.3725 24.1144 65.631 25.8942 65.2456 26.8163C64.8603 27.7384 64.3077 29.066 64.0177 29.7665C63.4449 31.15 63.2436 31.402 62.5926 31.5503C61.9838 31.6889 61.2353 31.3588 60.9619 30.831C60.7148 30.3539 60.7843 29.7936 61.2146 28.7938C61.4283 28.2973 61.6996 27.6589 61.8174 27.3751C61.9352 27.0914 62.3121 26.2015 62.6549 25.3976C62.9977 24.5937 63.424 23.5878 63.6024 23.1622C63.7808 22.7366 64.2071 21.7307 64.5498 20.9268C64.8925 20.1229 65.3188 19.1169 65.4972 18.6913C65.6756 18.2657 66.4118 16.5247 67.1332 14.8223C67.8546 13.1199 68.5332 11.5143 68.641 11.2542C68.749 10.9941 69.075 10.2096 69.3655 9.51074C69.656 8.81191 69.9164 8.07448 69.9442 7.87191C70.1394 6.45035 68.9248 5.03153 67.5128 5.03153C66.3685 5.03153 65.5305 5.73423 64.9022 7.22088C64.6942 7.7132 64.2436 8.77374 63.9011 9.57764C63.5586 10.3815 62.7845 12.2 62.1809 13.6186C61.5774 15.0373 60.8605 16.7203 60.588 17.3587C60.3155 17.9971 59.7726 19.2738 59.3814 20.196C58.9903 21.1181 58.2251 22.9172 57.6811 24.1939C55.5675 29.1538 55.7454 28.7892 55.308 29.0555C54.9639 29.2649 54.2282 29.279 53.8167 29.0841C53.0781 28.7342 52.9247 27.976 53.3452 26.7535C53.9035 25.1303 54.2325 22.4013 54.2342 19.3792C54.2358 16.6749 54.028 15.2247 53.4851 14.15C53.1532 13.4932 52.874 13.2754 52.4628 13.3524C51.9531 13.4479 51.8202 13.6289 51.5896 14.5424C51.4173 15.2254 50.7002 19.8802 50.467 21.8295C50.3363 22.9226 49.7121 26.7151 49.427 28.1489C49.1746 29.4182 48.4597 32.4424 48.2227 33.2432C48.1479 33.4961 48.2354 33.4884 48.8442 33.1877C49.4392 32.8937 50.9257 32.4458 51.7168 32.3219C52.4362 32.2092 54.1826 32.2091 54.9035 32.3216C56.3087 32.541 58.0146 33.2043 59.1668 33.9794C61.9532 35.8536 63.4174 39.2933 63.0915 43.199C62.7382 47.4341 60.4954 51.034 56.2816 54.1293C55.0532 55.0315 54.4459 55.412 51.5015 57.1234C49.5803 58.24 46.7214 60.1934 46.7214 60.3895C46.7214 60.577 47.4418 61.4749 48.111 62.1216C49.824 63.7769 51.4988 64.5263 54.4298 64.9489C55.7833 65.1439 57.8765 65.1432 59.296 64.947C65.3064 64.1162 70.9959 59.982 74.8333 53.6569C75.1008 53.2161 76.0123 51.4557 76.859 49.7449C79.3339 44.7443 81.5513 41.0588 83.7483 38.2944C84.4213 37.4478 86.1922 35.4749 86.4839 35.2471C86.7197 35.0629 87.2014 34.4223 87.2014 34.293C87.2014 34.258 86.9503 34.1617 86.6433 34.0787C85.9765 33.8986 84.5484 33.9428 83.7132 34.1695C83.0128 34.3596 81.9204 34.8555 81.3447 35.2446C79.9489 36.1882 77.7131 38.5748 76.7369 40.1635C76.6421 40.3177 76.3917 40.5308 76.1803 40.6373C75.1354 41.1633 74.061 40.5161 74.076 39.3698C74.0822 38.8941 74.1238 38.7851 75.7852 34.8982C75.8963 34.6382 76.1893 33.9417 76.4362 33.3506C76.683 32.7595 76.9923 32.0244 77.1235 31.717C77.2547 31.4097 77.5075 30.81 77.6855 30.3844C77.8635 29.9588 78.1158 29.3591 78.2463 29.0517C78.3767 28.7443 78.6859 28.0092 78.9331 27.4181C79.1804 26.827 79.49 26.0919 79.6212 25.7845C79.7524 25.4772 79.9971 24.8968 80.165 24.4949C80.333 24.0929 80.7396 23.1257 81.0688 22.3454C81.3979 21.5652 81.8622 20.4625 82.1005 19.895C82.3389 19.3276 82.8708 18.0701 83.2826 17.1007C83.6944 16.1313 84.1236 15.0867 84.2365 14.7793C84.7295 13.4363 84.2667 12.1352 83.0588 11.4691C82.6668 11.2528 82.4985 11.2124 81.9907 11.2124C80.9505 11.2124 80.1918 11.7598 79.728 12.8448C79.5865 13.1758 79.3328 13.7755 79.164 14.1775C78.9954 14.5794 77.8256 17.3651 76.5646 20.3679C75.3036 23.3707 74.1338 26.1564 73.9652 26.5583C73.7965 26.9603 73.5512 27.5406 73.42 27.848C73.2888 28.1554 72.9298 29.0066 72.622 29.7395C72.3143 30.4725 71.8595 31.5558 71.6113 32.1469C71.3632 32.738 70.9906 33.62 70.7833 34.1068C70.5761 34.5936 70.4065 35.0201 70.4065 35.0545C70.4065 35.0889 70.29 35.2581 70.1475 35.4306C69.4475 36.2784 67.9991 36.1648 67.5117 35.2239C67.3121 34.8384 67.3901 34.126 67.7123 33.3936C67.9654 32.8183 68.3002 32.0309 69.8873 28.2779C70.2773 27.3558 70.8666 25.9629 71.1969 25.1827C72.0138 23.2528 72.7528 21.5051 73.5964 19.5081C73.986 18.586 74.5751 17.1932 74.9055 16.4129C75.236 15.6327 75.7759 14.3559 76.1055 13.5756C76.4351 12.7954 76.837 11.8668 76.9988 11.5121C77.1606 11.1575 77.7589 9.75441 78.3283 8.39423C79.4636 5.68265 79.5165 5.4567 79.2194 4.5847C79.0099 3.9697 78.25 3.23175 77.6401 3.05094C77.1008 2.89102 76.7962 2.88672 76.2589 3.03142ZM35.6109 35.2121C34.2382 35.4843 33.0993 35.9641 32.3381 36.5911C31.3019 37.4446 30.477 38.6946 30.1362 39.928C29.9437 40.6242 29.871 42.78 30.0103 43.6526C30.6037 47.367 33.2765 50.5878 38.1606 53.4743C40.8118 55.0411 41.5774 55.5169 43.104 56.5467C43.9804 57.1378 44.7284 57.6738 44.7663 57.7379C44.8724 57.9174 45.0734 57.8777 45.4171 57.6095C46.0799 57.0921 48.3984 55.5948 50.29 54.4627C52.6565 53.0462 53.7019 52.3746 54.5613 51.7185C57.6722 49.3436 59.3601 47.0147 59.991 44.2269C60.2641 43.0197 60.2667 41.0975 59.9964 40.0999C59.4648 38.1379 58.352 36.7623 56.5952 35.8958C54.6553 34.939 51.8826 34.9172 49.9289 35.8435C48.9995 36.2841 48.5377 36.6045 47.7673 37.343C47.0885 37.9937 46.7446 38.4379 46.3338 39.1942C46.0412 39.7331 45.5384 40.0569 44.9941 40.0569C44.6028 40.0569 43.9909 39.7391 43.8354 39.4551C43.7706 39.3369 43.6238 39.0273 43.5091 38.7673C43.0898 37.8167 41.6899 36.5674 40.3358 35.9356C39.1967 35.404 38.4275 35.2324 37.032 35.1986C36.3689 35.1825 35.7294 35.1886 35.6109 35.2121Z" fill="#112907"/>
</svg>