<svg width="22" height="20" viewBox="0 0 22 20" fill="none" xmlns="http://www.w3.org/2000/svg">
<path d="M15.6875 0.375C13.8041 0.375 12.1325 1.11844 11 2.39625C9.8675 1.11844 8.19594 0.375 6.3125 0.375C4.67208 0.376985 3.09942 1.02952 1.93947 2.18947C0.779518 3.34942 0.126985 4.92208 0.125 6.5625C0.125 13.3444 10.0447 18.7631 10.4666 18.9909C10.6305 19.0792 10.8138 19.1254 11 19.1254C11.1862 19.1254 11.3695 19.0792 11.5334 18.9909C11.9553 18.7631 21.875 13.3444 21.875 6.5625C21.873 4.92208 21.2205 3.34942 20.0605 2.18947C18.9006 1.02952 17.3279 0.376985 15.6875 0.375ZM15.1728 13.7213C13.8671 14.8292 12.4714 15.8264 11 16.7025C9.52864 15.8264 8.13287 14.8292 6.82719 13.7213C4.79562 11.9784 2.375 9.32063 2.375 6.5625C2.375 5.51821 2.78984 4.51669 3.52827 3.77827C4.26669 3.03984 5.26821 2.625 6.3125 2.625C7.98125 2.625 9.37813 3.50625 9.95844 4.92562C10.0429 5.13254 10.1871 5.30961 10.3726 5.43425C10.5581 5.55889 10.7765 5.62545 11 5.62545C11.2235 5.62545 11.4419 5.55889 11.6274 5.43425C11.8129 5.30961 11.9571 5.13254 12.0416 4.92562C12.6219 3.50625 14.0188 2.625 15.6875 2.625C16.7318 2.625 17.7333 3.03984 18.4717 3.77827C19.2102 4.51669 19.625 5.51821 19.625 6.5625C19.625 9.32063 17.2044 11.9784 15.1728 13.7213Z" fill="#291714"/>
</svg>
