<svg width="18" height="18" viewBox="0 0 18 18" fill="none" xmlns="http://www.w3.org/2000/svg">
<path d="M10.1228 5.51321L10.2146 5.60498C10.2232 5.53004 10.2277 5.45407 10.2277 5.37736C10.2277 5.37715 10.2277 5.37695 10.2277 5.37674L10.1228 5.51321ZM10.1228 5.51321C10.126 5.46845 10.1276 5.42336 10.1277 5.37799C10.1277 5.37778 10.1277 5.37757 10.1277 5.37736L10.1228 5.51321ZM7.66831 7.1253C7.6408 7.25471 7.62768 7.38787 7.62768 7.52102V7.87799C7.62768 8.22307 7.90712 8.50314 8.25283 8.50314C8.59854 8.50314 8.87799 8.22307 8.87799 7.87799V7.52102C8.87799 7.47289 8.88237 7.42537 8.89237 7.37911C8.92425 7.2222 9.00552 7.09904 9.1143 7.04278L7.66831 7.1253ZM7.66831 7.1253C7.77709 6.59892 8.09467 6.16381 8.53915 5.93313L7.66831 7.1253ZM16.8919 14.8665L13.2277 11.2023C14.0903 10.1176 14.6075 8.74606 14.6075 7.25596C14.6075 3.75362 11.7583 0.904395 8.25596 0.904395C4.75362 0.904395 1.90439 3.75362 1.90439 7.25596C1.90439 10.7583 4.75362 13.6075 8.25596 13.6075C9.74664 13.6075 11.1182 13.0903 12.2023 12.2277L15.8665 15.8919C16.0079 16.0333 16.1937 16.1044 16.3792 16.1044C16.5648 16.1044 16.7506 16.0333 16.8919 15.8919C17.1754 15.6084 17.1754 15.15 16.8919 14.8665ZM3.35471 7.25596C3.35471 4.55362 5.55362 2.35471 8.25596 2.35471C10.9583 2.35471 13.1572 4.55362 13.1572 7.25596C13.1572 9.95829 10.9583 12.1572 8.25596 12.1572C5.55362 12.1572 3.35471 9.95829 3.35471 7.25596ZM8.25221 11.1031C8.82507 11.1031 9.28994 10.6383 9.28994 10.0654C9.28994 9.49255 8.82507 9.02768 8.25221 9.02768C7.67935 9.02768 7.21447 9.49255 7.21447 10.0654C7.21447 10.6383 7.67935 11.1031 8.25221 11.1031Z" fill="#2E2E2E" stroke="#2E2E2E" stroke-width="0.2"/>
</svg>