<svg width="90" height="44" viewBox="0 0 90 44" fill="none" xmlns="http://www.w3.org/2000/svg">
<path fill-rule="evenodd" clip-rule="evenodd" d="M26.8489 0.24172C25.5729 0.599561 24.8134 0.947612 22.312 2.32006L20.2341 3.4603L17.7044 3.60894C12.2359 3.93035 8.28351 5.6552 4.91855 9.18865C3.26272 10.9275 2.60953 11.8757 1.61701 13.9822C0.309008 16.7581 -0.00358292 18.2366 3.08496e-05 21.6281C0.00382531 25.0125 0.350566 26.7542 1.51818 29.2542C2.49624 31.348 3.3733 32.6207 5.04829 34.3769C7.42904 36.8729 10.2465 38.5349 13.6369 39.4433C15.9846 40.0725 20.019 40.102 22.7977 39.5107C27.4484 38.5211 31.6545 36.437 36.0985 32.9204C38.3354 31.1502 42.7748 26.6968 44.9897 24.0008C50.6803 17.0742 54.6991 13.1403 58.6786 10.6012C60.241 9.60414 62.6823 8.41496 64.4549 7.78756C67.0607 6.86486 68.7048 6.5953 71.7303 6.59458C74.9388 6.59385 75.9174 6.81102 78.5964 8.11767C83.354 10.4384 86.3749 14.8307 86.9844 20.3138C87.7788 27.4621 83.1274 34.3249 76.0668 36.4217C75.2172 36.6741 74.0521 36.8294 72.5181 36.895C68.4793 37.0678 65.1124 36.2517 59.5942 33.7628C57.9636 33.0273 56.409 32.4026 56.1394 32.3745C55.7245 32.3312 55.6403 32.3996 55.5923 32.8172C55.5484 33.1992 55.7327 33.5227 56.4054 34.2448C58.1299 36.096 60.7916 37.6361 64.1325 38.716L65.7274 39.2315L64.3923 39.8308C62.6028 40.6343 61.1685 40.8603 59.4216 40.6143C55.4633 40.0571 52.6322 37.0328 50.8971 31.5077C50.308 29.6322 49.876 27.7219 50.0104 27.5872C50.0571 27.5404 50.857 27.5801 51.7881 27.6753C52.7824 27.777 54.728 27.7888 56.5042 27.7038C58.1673 27.624 60.1494 27.6289 60.9092 27.7143C62.4666 27.8896 64.1466 28.5875 65.1603 29.4804C66.0408 30.2561 66.8743 31.903 67.1291 33.3707C67.3674 34.7442 67.5139 34.8885 68.859 35.0734C69.8663 35.2119 70.1944 34.9135 70.1944 33.8587C70.1944 32.8469 69.5286 30.4588 68.9872 29.5292C68.2544 28.2706 66.628 26.6567 65.4105 25.9804C63.2269 24.7669 62.9826 24.7328 56.2814 24.7069C51.0237 24.6866 50.0977 24.6413 49.2346 24.3621C47.7137 23.8703 47.3429 23.8315 47.0894 24.138C46.4184 24.9491 46.828 29.1262 47.9067 32.4741C48.7379 35.0536 49.889 37.2821 51.3121 39.0664C53.9314 42.3509 57.2235 43.8425 61.3194 43.6007C63.4977 43.4721 64.4541 43.1379 67.62 41.3991L70.1169 40.0277L71.5559 40.027C80.1054 40.0226 87.2863 34.4538 89.5593 26.0654C90.1404 23.9207 90.148 19.6603 89.5749 17.3681C87.9483 10.864 83.05 5.84318 76.6219 4.09114C74.643 3.55166 69.2146 3.50217 67.152 4.00467C61.8712 5.29119 57.3197 7.68496 52.7381 11.585C50.7545 13.2734 46.8294 17.3463 44.6308 19.9977C40.0406 25.533 37.5178 28.1519 34.2952 30.7275C29.1064 34.8747 23.7503 36.9431 18.1937 36.9453C13.9412 36.9469 10.3506 35.4718 7.39922 32.5107C4.29499 29.3965 2.82853 25.5078 3.02638 20.9149C3.13642 18.3595 3.50159 17.01 4.7469 14.5583C5.44381 13.1864 5.87927 12.6239 7.48415 11.0234C9.11106 9.40075 9.64608 8.99142 11.1093 8.24945C13.2533 7.16197 14.9975 6.695 17.4469 6.55198C21.4277 6.31958 25.3101 7.31352 31.2908 10.0958C33.9133 11.3158 34.5988 11.459 34.5988 10.7866C34.5988 9.20968 30.5105 6.36272 26.2266 4.95656C24.1873 4.2871 24.1837 4.32227 26.3757 3.49437C30.1427 2.07189 34.1577 3.28373 36.5808 6.57445C37.5565 7.89959 38.6186 10.0978 39.256 12.111C39.8234 13.9031 40.284 15.8943 40.1598 16.0186C40.1205 16.0583 39.4019 16.013 38.5631 15.9182C37.6324 15.8131 35.7921 15.8074 33.8412 15.9037C32.0449 15.9923 30.0357 15.9929 29.2555 15.9051C27.6905 15.7291 26.013 15.033 24.9972 14.1382C24.1151 13.3611 23.2832 11.7149 23.027 10.2397C22.7924 8.88773 22.6323 8.73963 21.1845 8.53406C20.2588 8.40282 19.963 8.69449 19.963 9.73847C19.963 11.8273 21.073 14.4261 22.6435 16.0143C23.8605 17.2452 24.6555 17.7283 26.5582 18.3939L28.0037 18.8995L33.9664 18.9042C39.749 18.9087 39.9716 18.9221 41.337 19.3454C42.9676 19.851 43.0803 19.8026 43.2805 18.5099C43.5729 16.6217 42.8854 12.715 41.7345 9.72578C39.895 4.94695 37.0009 1.76735 33.334 0.496776C31.8008 -0.0345471 28.321 -0.171411 26.8489 0.24172Z" fill="#112907"/>
</svg>