<svg width="90" height="91" viewBox="0 0 90 91" fill="none" xmlns="http://www.w3.org/2000/svg">
<path fill-rule="evenodd" clip-rule="evenodd" d="M12.3968 0.120838C11.6072 0.341429 10.3351 1.38005 9.95555 2.11402C9.12993 3.71079 0 27.1161 0 27.6361C0 27.978 0.144914 28.3863 0.333137 28.5746C0.516244 28.7577 2.18156 29.5107 4.03364 30.2477C8.54114 32.0415 8.12723 31.7473 7.51084 32.7192C6.75356 33.9135 6.51984 34.9512 6.61596 36.6915C6.75959 39.29 8.14367 41.4367 10.387 42.5405C11.5105 43.0936 11.73 43.1363 13.4379 43.1363C15.1993 43.1363 15.3382 43.1067 16.6781 42.4444C18.6054 41.4915 19.7651 40.0106 20.3024 37.8151C20.4226 37.3242 20.5355 36.9026 20.5533 36.8785C20.571 36.8541 22.2507 37.4916 24.2861 38.2948C26.3213 39.0981 28.1511 39.7553 28.3525 39.7553C29.1673 39.7553 29.6963 38.8225 31.6179 33.9971C33.6324 28.9377 33.8371 28.0676 33.1832 27.3448C32.868 26.9966 32.6482 26.9601 30.9695 26.9767C29.4281 26.9919 28.9789 26.9303 28.3728 26.621C25.6859 25.2502 25.6773 21.4623 28.3581 20.1263C30.1126 19.2518 32.0267 19.6791 33.0951 21.1838C33.9345 22.3658 34.3614 22.7586 34.8067 22.7586C35.3699 22.7586 36.1219 22.1323 36.5378 21.3168C37.3503 19.7244 40.3858 11.8427 40.3858 11.326C40.3858 10.9682 40.2277 10.6116 39.9562 10.3565C39.3749 9.81041 14.9601 0.127417 13.8883 0.0179442C13.436 -0.0282941 12.7648 0.0179441 12.3968 0.120838ZM12.9035 3.60351C12.4193 4.34278 3.66067 26.4929 3.79919 26.6282C3.87064 26.6978 5.73807 27.4647 7.94924 28.3322C10.1604 29.1996 12.1547 30.0831 12.3807 30.2953C12.7853 30.6748 12.9242 31.5219 12.6842 32.1472C12.625 32.3014 12.1704 32.6883 11.6737 33.0072C9.85285 34.1758 9.24871 36.3198 10.2383 38.1029C11.4453 40.2785 14.5407 40.6766 16.2135 38.8714C16.9874 38.0364 17.1735 37.3231 17.1281 35.3648C17.0801 33.2942 17.2157 33.0257 18.386 32.8716C18.974 32.7943 19.7843 33.0487 23.0862 34.3478C25.2808 35.2109 27.1438 35.9173 27.2266 35.9173C27.4335 35.9173 29.4718 30.6641 29.3448 30.4585C29.2886 30.3676 28.9334 30.2353 28.5553 30.1646C27.4576 29.959 26.0258 29.197 25.1649 28.3604C24.1505 27.3744 23.4607 25.952 23.1732 24.2543C22.9755 23.0863 22.987 22.7637 23.265 21.7043C23.6741 20.144 24.489 18.8865 25.6673 17.9966C28.1977 16.086 30.8862 15.8795 33.6103 17.3865C34.0549 17.6325 34.4803 17.77 34.5558 17.6919C34.8184 17.4198 36.6909 12.4317 36.5744 12.3148C36.3958 12.1358 14.2333 3.37342 13.6769 3.26175C13.3028 3.18682 13.1252 3.26522 12.9035 3.60351ZM50.705 14.7976L50.2538 15.2488V20.7638V26.2789L49.5685 26.1567C45.7988 25.4848 43.1794 26.1345 41.0895 28.2599C38.4615 30.9324 37.8729 34.6427 39.5432 38.0086C41.1493 41.2453 43.7354 42.652 47.6954 42.4426C48.7508 42.3867 49.7582 42.285 49.934 42.2165C50.2332 42.1001 50.2538 42.3759 50.2538 46.4889V50.8855L44.0245 50.9404L37.7954 50.995L37.3545 51.5078C36.7341 52.2294 36.8031 52.8413 37.6445 54.08C38.5458 55.4068 38.808 56.3327 38.6929 57.782C38.3981 61.4944 34.5383 63.6228 31.1274 61.954C29.3223 61.0708 28.3232 59.3828 28.3267 57.222C28.3285 56.0558 28.7554 54.9472 29.6967 53.6637C30.3118 52.8252 30.2864 52.1062 29.6181 51.4378L29.084 50.9036H22.1199C14.1456 50.9036 14.046 50.9184 13.7118 52.1597C13.5746 52.6698 13.5292 58.1514 13.564 70.0384L13.6142 87.1815L14.1624 88.1801C14.7797 89.3046 15.9316 90.2762 16.9834 90.5595C17.4611 90.6881 28.817 90.7338 52.2905 90.7015C84.9796 90.6565 86.9261 90.636 87.4844 90.331C88.3073 89.8812 89.2268 88.9227 89.646 88.0776C89.9923 87.3796 90 86.6177 90 52.5485C90 18.4793 89.9923 17.7173 89.646 17.0194C89.1948 16.1096 88.3336 15.2483 87.4239 14.797C86.7353 14.4553 86.0972 14.4414 68.9334 14.3946L51.1562 14.3463L50.705 14.7976ZM53.6031 17.6813C53.5199 17.81 53.4657 20.5244 53.4827 23.713C53.5132 29.4096 53.5066 29.5209 53.1113 30.1096C52.4893 31.0358 51.6463 31.0281 50.231 30.0827C48.8759 29.1779 47.924 28.903 46.5663 29.0249C42.9624 29.3486 40.7933 33.3243 42.4506 36.5685C43.3939 38.4151 45.0128 39.4126 47.0666 39.4126C48.3197 39.4126 49.4777 38.9782 50.7834 38.0185C51.5864 37.4284 52.1236 37.4419 52.8272 38.0706L53.396 38.579L53.3703 44.7413L53.3447 50.9036H57.8028H62.2612L62.0032 49.9441C61.8378 49.3297 61.7672 48.355 61.8067 47.234C61.8613 45.6818 61.9386 45.3401 62.4889 44.2185C63.6992 41.7521 66.2278 39.8284 68.8689 39.3647C72.4304 38.7395 76.3487 40.9185 77.9742 44.4285C78.4193 45.3892 78.4769 45.7299 78.4818 47.4312C78.4848 48.4866 78.4184 49.6998 78.3342 50.1269L78.181 50.9036H82.5829H86.9848L86.9837 35.1406C86.9831 24.8092 86.9173 19.1421 86.7931 18.6944C86.6887 18.3186 86.4219 17.9074 86.2001 17.7806C85.6021 17.4384 53.8226 17.3418 53.6031 17.6813ZM68.802 42.7416C67.6356 43.1277 66.9783 43.5282 66.3655 44.226C64.6516 46.1784 64.4802 48.6469 65.9118 50.7678C66.7875 52.0653 66.9061 52.4282 66.6736 53.0955C66.3045 54.1544 66.0494 54.1933 59.4914 54.1933H53.5431V58.5556V62.9177L54.5939 62.6705C56.7157 62.1712 58.8235 62.4352 60.6494 63.4291C61.983 64.155 63.6688 65.9872 64.3748 67.4778C64.9334 68.6569 64.9645 68.8342 64.9645 70.834C64.9645 72.9048 64.9513 72.9715 64.2797 74.3306C63.3708 76.1702 61.8915 77.6939 60.2178 78.5148C59.0009 79.1117 58.852 79.1401 56.9284 79.1401C55.8203 79.1401 54.6054 79.0746 54.2284 78.9948L53.5431 78.8493V83.2439V87.6384L69.3959 87.6282C81.1756 87.6205 85.413 87.5616 85.8883 87.3997C86.3713 87.2349 86.5813 87.0249 86.7461 86.5418C86.908 86.0665 86.9669 81.8286 86.9745 70.0478L86.9848 54.1933H80.9452C75.9158 54.1933 74.8164 54.1471 74.372 53.9174C73.2441 53.334 73.1854 52.437 74.187 51.0943C75.0984 49.8727 75.3683 49.0919 75.359 47.7053C75.3456 45.7421 74.2455 44.0035 72.4656 43.1327C71.3081 42.5663 69.8137 42.4068 68.802 42.7416ZM16.8149 70.2305C16.8169 82.7693 16.8679 86.3673 17.0481 86.7246C17.1749 86.9763 17.5638 87.2795 17.9134 87.3997C18.3852 87.5618 22.6184 87.6205 34.401 87.6282L50.2538 87.6384V81.4492C50.2538 75.5532 50.271 75.2381 50.6164 74.799C51.3038 73.925 52.3102 74.001 53.464 75.0143C54.8693 76.2481 57.2395 76.4394 59.0321 75.4635C62.8494 73.3857 62.6594 67.9299 58.7067 66.1202C57.8703 65.7372 57.5095 65.6792 56.3038 65.7341C55.0723 65.79 54.7662 65.8764 53.9857 66.3878C51.8924 67.7592 51.2689 67.8269 50.6144 66.7531C50.2766 66.1994 50.2551 65.8064 50.2545 60.1787L50.2538 54.1933H45.8664H41.4791L41.6176 55.2442C42.0942 58.8557 41.4382 61.3668 39.5262 63.2493C37.7114 65.0361 35.6234 65.8042 32.9596 65.6648C31.4432 65.5855 31.076 65.4947 29.8769 64.902C26.5759 63.2703 25.0447 60.5563 25.2788 56.752C25.3376 55.797 25.4398 54.8308 25.5061 54.6045L25.6263 54.1933H21.2194H16.8122L16.8149 70.2305Z" fill="#112907"/>
</svg>
