<svg width="18" height="18" viewBox="0 0 18 18" fill="none" xmlns="http://www.w3.org/2000/svg">
<path d="M13.1894 10.1841L10.9394 9.05906C10.8508 9.01493 10.7521 8.99494 10.6534 9.00111C10.5546 9.00728 10.4592 9.0394 10.3769 9.09422L9.34396 9.78328C8.86981 9.52262 8.47962 9.13243 8.21896 8.65828L8.90802 7.62539C8.96284 7.54301 8.99496 7.44762 9.00113 7.34886C9.0073 7.2501 8.98731 7.15146 8.94318 7.06289L7.81818 4.81289C7.77155 4.71872 7.69947 4.6395 7.61012 4.5842C7.52077 4.52889 7.41771 4.49973 7.31263 4.5C6.56671 4.5 5.85134 4.79632 5.32389 5.32376C4.79645 5.85121 4.50013 6.56658 4.50013 7.3125C4.50199 8.95296 5.15448 10.5257 6.31446 11.6857C7.47444 12.8456 9.04718 13.4981 10.6876 13.5C11.057 13.5 11.4227 13.4273 11.7639 13.2859C12.1052 13.1446 12.4152 12.9374 12.6764 12.6762C12.9375 12.4151 13.1447 12.105 13.286 11.7638C13.4274 11.4226 13.5001 11.0568 13.5001 10.6875C13.5002 10.583 13.4712 10.4805 13.4163 10.3916C13.3614 10.3027 13.2828 10.2308 13.1894 10.1841ZM10.6876 12.375C9.34543 12.3735 8.05863 11.8397 7.10955 10.8906C6.16047 9.9415 5.62662 8.6547 5.62513 7.3125C5.62502 6.92235 5.76011 6.54421 6.00739 6.24244C6.25468 5.94067 6.5989 5.73391 6.98146 5.65734L7.78865 7.27453L7.10169 8.29688C7.05036 8.37388 7.01882 8.46236 7.00986 8.55447C7.00091 8.64658 7.01482 8.73947 7.05037 8.82492C7.45282 9.78144 8.21377 10.5424 9.17029 10.9448C9.25599 10.982 9.34959 10.9972 9.44264 10.9891C9.53569 10.981 9.62526 10.9498 9.70326 10.8984L10.7305 10.2136L12.3477 11.0208C12.2705 11.4038 12.0629 11.7482 11.7601 11.9951C11.4574 12.2421 11.0783 12.3763 10.6876 12.375ZM9.00013 1.6875C7.73765 1.68722 6.4966 2.01381 5.39778 2.63547C4.29896 3.25714 3.37981 4.15269 2.72978 5.23498C2.07976 6.31726 1.72102 7.5494 1.68847 8.81146C1.65592 10.0735 1.95067 11.3225 2.54404 12.4369L1.74599 14.831C1.67989 15.0292 1.67029 15.242 1.71829 15.4453C1.76628 15.6487 1.86996 15.8347 2.01771 15.9824C2.16547 16.1302 2.35145 16.2339 2.55481 16.2818C2.75818 16.3298 2.97089 16.3202 3.16912 16.2541L5.56326 15.4561C6.54395 15.9777 7.63059 16.269 8.7407 16.308C9.8508 16.347 10.9552 16.1325 11.97 15.6809C12.9849 15.2293 13.8835 14.5525 14.5977 13.7017C15.3119 12.851 15.8229 11.8487 16.0919 10.771C16.361 9.69326 16.3809 8.56842 16.1503 7.48184C15.9197 6.39525 15.4446 5.37549 14.761 4.49994C14.0774 3.6244 13.2034 2.91608 12.2052 2.42877C11.207 1.94146 10.1109 1.68796 9.00013 1.6875ZM9.00013 15.1875C7.91238 15.1882 6.84372 14.9018 5.90216 14.3571C5.83323 14.3171 5.75658 14.2923 5.6773 14.2841C5.59803 14.276 5.51793 14.2848 5.44232 14.31L2.81263 15.1875L3.68943 12.5578C3.7147 12.4823 3.72364 12.4022 3.71564 12.3229C3.70763 12.2436 3.68288 12.167 3.64302 12.098C2.96097 10.9188 2.68713 9.54744 2.86398 8.19672C3.04083 6.846 3.65849 5.5914 4.62113 4.62754C5.58378 3.66368 6.8376 3.04444 8.18809 2.86588C9.53858 2.68733 10.9103 2.95944 12.0903 3.64C13.2704 4.32056 14.1929 5.37153 14.7147 6.62987C15.2365 7.88822 15.3284 9.28359 14.9763 10.5995C14.6241 11.9155 13.8476 13.0784 12.767 13.908C11.6865 14.7375 10.3624 15.1873 9.00013 15.1875Z" fill="#2E2E2E" stroke="#2E2E2E" stroke-width="0.5"/>
</svg>